<svg width="87" height="90" viewBox="0 0 87 90" fill="none" xmlns="http://www.w3.org/2000/svg">
<g filter="url(#filter0_d_43_57)">
<path d="M63.8612 0H22.3249C12.2043 0 4 8.60453 4 19.2188V62.7812C4 73.3955 12.2043 82 22.3249 82H63.8612C73.9817 82 82.186 73.3955 82.186 62.7812V19.2188C82.186 8.60453 73.9817 0 63.8612 0Z" fill="#F0DB4F"/>
<path d="M73.6344 58.5971C72.7453 58.9504 71.7636 58.9498 70.8749 58.5954C69.9863 58.2409 69.2522 57.5573 68.8116 56.6737C66.0437 52.328 62.9871 48.1783 60.0493 43.9396L58.7754 42.1587C55.2772 47.0742 51.779 51.7937 48.5865 56.6916C48.1707 57.536 47.4763 58.1931 46.6328 58.5405C45.7893 58.8878 44.8542 58.9017 44.0016 58.5795L57.1283 40.1106L44.9185 23.4223C45.7974 23.0895 46.7589 23.085 47.6406 23.4094C48.5224 23.7339 49.2704 24.3675 49.7584 25.2033C52.5941 29.5493 55.7359 33.6989 58.8603 38.0981C62.0021 33.7345 65.1097 29.5669 68.0136 25.2568C68.4316 24.4259 69.1264 23.7854 69.9655 23.457C70.8047 23.1286 71.7298 23.1353 72.5646 23.4758L67.8267 30.0656C65.704 33.0042 63.6153 35.9607 61.4078 38.8281C61.2299 38.9951 61.0875 39.1997 60.9901 39.4283C60.8927 39.6569 60.8423 39.9046 60.8423 40.155C60.8423 40.4054 60.8927 40.653 60.9901 40.8817C61.0875 41.1103 61.2299 41.3148 61.4078 41.4819C65.4664 47.1277 69.4909 52.7912 73.6344 58.5971ZM12.5516 39.879C12.9083 38.0981 13.1288 36.1567 13.6214 34.3402C16.5592 23.3871 28.5312 18.8275 36.7673 25.6133C41.5901 29.5852 42.7958 35.213 42.5582 41.5533H15.3877C14.946 52.8805 22.7405 59.7195 32.7086 56.2287C34.3256 55.6222 35.7732 54.6028 36.9205 53.2626C38.0679 51.9224 38.879 50.3037 39.2805 48.5525C39.807 46.7715 40.6561 46.4688 42.2693 46.9852C42.0036 49.1534 41.2726 51.2301 40.1314 53.0594C38.9902 54.8887 37.4685 56.4228 35.6806 57.5465C32.7266 59.241 29.3372 59.9124 25.9974 59.4646C22.6575 59.0168 19.5383 57.4727 17.0858 55.0532C14.6594 52.1919 13.1923 48.5766 12.9083 44.759C12.9083 44.1536 12.6875 43.5479 12.5687 42.9781C12.5574 41.9451 12.5517 40.9121 12.5516 39.879ZM15.4216 39.1132H39.994C39.8409 30.9029 34.8993 25.079 28.3106 25.0258C20.9746 24.9188 15.7273 30.6178 15.4044 39.0776L15.4216 39.1132Z" fill="black"/>
</g>
<defs>
<filter id="filter0_d_43_57" x="0" y="0" width="86.186" height="90" filterUnits="userSpaceOnUse" color-interpolation-filters="sRGB">
<feFlood flood-opacity="0" result="BackgroundImageFix"/>
<feColorMatrix in="SourceAlpha" type="matrix" values="0 0 0 0 0 0 0 0 0 0 0 0 0 0 0 0 0 0 127 0" result="hardAlpha"/>
<feOffset dy="4"/>
<feGaussianBlur stdDeviation="2"/>
<feComposite in2="hardAlpha" operator="out"/>
<feColorMatrix type="matrix" values="0 0 0 0 0 0 0 0 0 0 0 0 0 0 0 0 0 0 0.25 0"/>
<feBlend mode="normal" in2="BackgroundImageFix" result="effect1_dropShadow_43_57"/>
<feBlend mode="normal" in="SourceGraphic" in2="effect1_dropShadow_43_57" result="shape"/>
</filter>
</defs>
</svg>
