<svg width="80" height="80" viewBox="0 0 80 80" fill="none" xmlns="http://www.w3.org/2000/svg">
<g filter="url(#filter0_d_75_50)">
<path d="M74.6418 32.7931L43.2057 1.35776C41.3965 -0.452588 38.4603 -0.452588 36.6482 1.35776L30.121 7.88621L38.4015 16.1668C40.3265 15.5172 42.5326 15.9529 44.0663 17.4867C45.608 19.0301 46.0404 21.2551 45.3748 23.1864L53.3553 31.1675C55.2859 30.5019 57.5144 30.932 59.0555 32.4765C61.2114 34.6308 61.2114 38.1232 59.0555 40.2786C58.5431 40.7912 57.9348 41.1979 57.2653 41.4753C56.5957 41.7527 55.8781 41.8955 55.1533 41.8955C54.4286 41.8955 53.711 41.7527 53.0414 41.4753C52.3719 41.1979 51.7635 40.7912 51.2512 40.2786C50.4816 39.5083 49.957 38.5275 49.7434 37.4598C49.5298 36.392 49.6367 35.2849 50.0506 34.2778L42.6085 26.8356L42.6074 46.4226C43.1474 46.6885 43.6404 47.0407 44.0669 47.4653C46.2217 49.6196 46.2217 53.1108 44.0669 55.2696C41.9115 57.4239 38.4181 57.4239 36.2649 55.2696C34.1101 53.1114 34.1101 49.6201 36.2649 47.4653C36.7817 46.9488 37.3956 46.5397 38.0713 46.2618V26.4934C37.3948 26.2166 36.7807 25.8072 36.2649 25.2893C34.6326 23.6581 34.2396 21.2625 35.0769 19.2571L26.9133 11.0934L5.35815 32.6477C4.48853 33.5176 4 34.6972 4 35.9273C4 37.1573 4.48853 38.337 5.35815 39.2069L36.7948 70.6422C38.6051 72.4526 41.5402 72.4526 43.3534 70.6422L74.6423 39.3529C75.5118 38.4828 76.0001 37.303 76 36.0729C75.9999 34.8428 75.5114 33.6631 74.6418 32.7931Z" fill="#F34F29"/>
</g>
<defs>
<filter id="filter0_d_75_50" x="0" y="0" width="80" height="80" filterUnits="userSpaceOnUse" color-interpolation-filters="sRGB">
<feFlood flood-opacity="0" result="BackgroundImageFix"/>
<feColorMatrix in="SourceAlpha" type="matrix" values="0 0 0 0 0 0 0 0 0 0 0 0 0 0 0 0 0 0 127 0" result="hardAlpha"/>
<feOffset dy="4"/>
<feGaussianBlur stdDeviation="2"/>
<feComposite in2="hardAlpha" operator="out"/>
<feColorMatrix type="matrix" values="0 0 0 0 0 0 0 0 0 0 0 0 0 0 0 0 0 0 0.25 0"/>
<feBlend mode="normal" in2="BackgroundImageFix" result="effect1_dropShadow_75_50"/>
<feBlend mode="normal" in="SourceGraphic" in2="effect1_dropShadow_75_50" result="shape"/>
</filter>
</defs>
</svg>
