<svg width="94" height="91" viewBox="0 0 94 91" fill="none" xmlns="http://www.w3.org/2000/svg">
<g filter="url(#filter0_d_73_16)">
<path d="M47 0C41.3532 0 35.7616 1.10008 30.5446 3.23743C25.3276 5.37478 20.5873 8.50754 16.5944 12.4568C8.53034 20.4328 4 31.2506 4 42.5303C4 61.3287 16.341 77.2776 33.412 82.9341C35.562 83.2744 36.25 81.9559 36.25 80.8076V73.62C24.339 76.1718 21.802 67.9209 21.802 67.9209C19.824 62.9874 17.029 61.669 17.029 61.669C13.116 59.0321 17.33 59.1171 17.33 59.1171C21.63 59.4149 23.909 63.4978 23.909 63.4978C27.65 69.9624 33.971 68.0485 36.422 67.0278C36.809 64.2633 37.927 62.392 39.131 61.3287C29.585 60.2655 19.566 56.6079 19.566 40.4038C19.566 35.6829 21.2 31.8977 23.995 28.8781C23.565 27.8148 22.06 23.3917 24.425 17.6501C24.425 17.6501 28.037 16.5018 36.25 21.9882C39.647 21.0525 43.345 20.5847 47 20.5847C50.655 20.5847 54.353 21.0525 57.75 21.9882C65.963 16.5018 69.575 17.6501 69.575 17.6501C71.94 23.3917 70.435 27.8148 70.005 28.8781C72.8 31.8977 74.434 35.6829 74.434 40.4038C74.434 56.6504 64.372 60.2229 54.783 61.2862C56.331 62.6046 57.75 65.199 57.75 69.1543V80.8076C57.75 81.9559 58.438 83.3169 60.631 82.9341C77.702 77.2351 90 61.3287 90 42.5303C90 36.9452 88.8878 31.4147 86.7268 26.2547C84.5659 21.0947 81.3985 16.4061 77.4056 12.4568C73.4127 8.50754 68.6724 5.37478 63.4554 3.23743C58.2384 1.10008 52.6468 0 47 0Z" fill="black"/>
</g>
<defs>
<filter id="filter0_d_73_16" x="0" y="0" width="94" height="91" filterUnits="userSpaceOnUse" color-interpolation-filters="sRGB">
<feFlood flood-opacity="0" result="BackgroundImageFix"/>
<feColorMatrix in="SourceAlpha" type="matrix" values="0 0 0 0 0 0 0 0 0 0 0 0 0 0 0 0 0 0 127 0" result="hardAlpha"/>
<feOffset dy="4"/>
<feGaussianBlur stdDeviation="2"/>
<feComposite in2="hardAlpha" operator="out"/>
<feColorMatrix type="matrix" values="0 0 0 0 0 0 0 0 0 0 0 0 0 0 0 0 0 0 0.25 0"/>
<feBlend mode="normal" in2="BackgroundImageFix" result="effect1_dropShadow_73_16"/>
<feBlend mode="normal" in="SourceGraphic" in2="effect1_dropShadow_73_16" result="shape"/>
</filter>
</defs>
</svg>
