<svg width="187" height="69" viewBox="0 0 187 69" fill="none" xmlns="http://www.w3.org/2000/svg">
<path d="M76.5922 0C82.9581 0.0391156 87.7891 1.8619 90.9448 5.4136C93.929 8.78537 95.3627 13.6592 95.2069 19.8864L95.0978 20.3636C94.9989 20.587 94.837 20.7765 94.632 20.9085C94.4271 21.0406 94.1881 21.1095 93.9446 21.1068H81.018C80.6127 21.1049 80.2241 20.9445 79.9346 20.6597C79.6451 20.3749 79.4775 19.9881 79.4674 19.5813C79.4778 16.2747 78.4649 14.4232 76.4286 14.0269L75.4936 13.9408C72.8288 13.9408 71.099 15.5915 71.0522 18.4704C70.9977 21.6779 72.8054 24.5959 77.948 29.6027C84.7113 35.9864 87.4307 41.6425 87.2982 49.1058C87.0878 61.1847 78.9064 69 66.4707 69C60.1203 69 55.266 67.2867 52.0324 63.9228C48.7598 60.5041 47.2638 55.4895 47.5755 49.0119C47.5901 48.6824 47.7262 48.3701 47.9573 48.1357C48.1912 47.9085 48.5045 47.7821 48.83 47.7837H62.2007C62.3864 47.7954 62.5685 47.8405 62.7384 47.9167C63.0455 48.0775 63.2777 48.3527 63.3851 48.6833C63.4266 48.8398 63.4318 48.9963 63.4007 49.1527C63.2526 51.484 63.6656 53.2286 64.5772 54.1986C64.8895 54.5223 65.2676 54.7744 65.6858 54.9378C66.1041 55.1012 66.5525 55.1719 67.0005 55.1452C69.4705 55.1452 70.9198 53.385 70.9743 50.334C71.0211 47.6976 70.1796 45.3741 65.6603 40.6959C59.8086 34.9537 54.5647 29.0238 54.7284 19.6986C54.7484 17.0883 55.2928 14.5089 56.3291 12.1148C57.3653 9.72076 58.8721 7.56126 60.7592 5.76564C64.7642 1.99489 70.2341 0 76.5922 0ZM31.5321 0.219047C37.3526 0.172108 41.9264 1.97143 45.1055 5.57789C48.4715 9.38776 50.1779 15.1299 50.1857 22.648C50.1816 22.9786 50.0474 23.2941 49.8124 23.5257C49.5773 23.7573 49.2606 23.8861 48.9313 23.884H34.8982C34.6533 23.8728 34.4207 23.7727 34.2437 23.6024C34.0751 23.4215 33.9782 23.185 33.971 22.9374C33.8619 18.0636 32.5061 15.5367 29.8257 15.2395L29.2725 15.2082C23.8961 15.216 20.7249 22.5463 19.0418 26.6143C16.6621 32.3061 15.53 38.4454 15.7225 44.6153C15.8394 47.4786 16.2991 51.4997 18.9951 53.166C21.395 54.6446 24.8156 53.6667 26.8882 52.0238C28.953 50.3888 30.6205 47.5568 31.3217 44.9752C31.4256 44.6101 31.4282 44.3545 31.3295 44.2085C31.2776 44.1511 31.1945 44.112 31.0802 44.0912L27.1531 44.0599C26.9626 44.0543 26.7752 44.0098 26.6024 43.9291C26.4296 43.8484 26.275 43.7332 26.148 43.5905C26.0473 43.4813 25.9797 43.3457 25.9532 43.1993C25.9116 43.0563 25.9116 42.9043 25.9532 42.7612L28.4154 32.0122C28.4876 31.7326 28.6437 31.4821 28.8625 31.2946C29.0814 31.107 29.3523 30.9916 29.6387 30.9639V30.9405H53.2869L53.4505 30.9483C54.0661 31.0265 54.5024 31.6054 54.4946 32.2313V32.2626L52.0324 42.9881C51.8999 43.5983 51.2922 44.0442 50.5987 44.0442H47.63C47.5228 44.0449 47.4186 44.0803 47.333 44.1451C47.2474 44.21 47.1849 44.3008 47.1547 44.4041C44.412 53.7449 40.6953 60.1755 35.7942 64.0323C31.6178 67.318 26.483 68.8514 19.6106 68.8514C13.4395 68.8514 9.27867 66.8565 5.74898 62.9214C1.08947 57.7112 -0.835115 49.1997 0.333659 38.9279C2.43745 19.6595 12.3798 0.219047 31.5321 0.219047ZM163.752 1.2517C179.413 1.2517 187.236 8.3864 186.995 22.4602C186.706 38.9514 176.702 51.0772 161.64 53.8779C159.495 54.2586 157.331 54.4359 155.149 54.4099L147.872 54.3786C147.754 54.3824 147.643 54.4303 147.559 54.5129C147.475 54.5956 147.426 54.7068 147.42 54.8245C147.42 54.9027 147.441 54.9783 147.482 55.0514C147.531 55.1146 147.589 55.17 147.654 55.2156L153.84 58.4544C154.349 58.7308 154.547 59.1585 154.433 59.7374L152.82 67.0364C152.687 67.6466 152.196 67.9986 151.487 67.9986H138.218C138.028 67.9937 137.84 67.954 137.665 67.8813C137.494 67.7953 137.341 67.6786 137.213 67.5371C137.116 67.4232 137.048 67.2878 137.014 67.1422C136.98 66.9966 136.982 66.845 137.018 66.7L151.791 2.22959C151.939 1.5568 152.57 1.25952 153.131 1.25952L163.752 1.2517ZM134.587 1.34558C134.732 1.41082 134.866 1.49787 134.984 1.60374C135.093 1.72466 135.182 1.86192 135.249 2.01054C135.301 2.15919 135.329 2.3148 135.335 2.47211L135.249 66.7235C135.273 66.8747 135.265 67.0293 135.226 67.1772C135.181 67.336 135.101 67.4824 134.991 67.6057C134.882 67.729 134.746 67.8259 134.595 67.8891C134.439 67.962 134.268 67.9969 134.096 67.9908H119.969C119.646 67.9903 119.336 67.8641 119.104 67.6388C118.999 67.5197 118.912 67.3852 118.847 67.2398C118.792 67.0891 118.761 66.9308 118.754 66.7704L119.058 60.5354C119.073 59.8548 119.058 59.667 118.66 59.6201L118.13 59.6044H104.775C103.809 59.6044 103.739 59.6905 103.396 60.5823L100.622 67.2867C100.373 67.7561 99.8742 67.9908 99.1262 67.9908H85.1399C84.2906 67.9908 83.6828 67.1459 84.0023 66.3558L112.972 2.21395C113.167 1.83061 113.463 1.2517 114.133 1.2517H134.127C134.283 1.2517 134.436 1.28299 134.587 1.34558ZM120.772 18.7364C120.71 18.4861 120.507 18.5095 120.343 18.8381C120.227 19.0752 120.123 19.318 120.032 19.5656L110.027 44.4667L109.902 44.8422C109.892 44.8943 109.889 44.9439 109.894 44.9908L109.949 45.1238C109.98 45.1642 110.02 45.1964 110.066 45.2177C110.106 45.2432 110.151 45.2593 110.198 45.2646L118.551 45.3742C119.478 45.2959 119.525 45.249 119.619 44.3024C119.634 43.966 120.819 19.0258 120.772 18.7364ZM156.708 15.5837C156.591 15.5873 156.48 15.6348 156.396 15.7167C156.312 15.7995 156.262 15.9112 156.256 16.0296C156.257 16.1107 156.279 16.1901 156.32 16.26C156.361 16.3299 156.42 16.388 156.49 16.4286L163.05 19.9099C163.378 20.0898 163.385 20.4027 163.276 20.9425C163.222 21.185 159.069 39.5225 159.076 39.5381C159.1 39.5616 159.224 39.6241 159.848 39.6241H160.128C167.102 39.3425 170.904 31.0656 171.045 23.0313C171.115 18.6895 169.642 16.0218 166.97 15.6306L166.416 15.5837H156.708Z" fill="black"/>
</svg>
