<svg width="69" height="94" viewBox="0 0 69 94" fill="none" xmlns="http://www.w3.org/2000/svg">
<g filter="url(#filter0_d_242_5)">
<path d="M9.5 0H13.3998V3.96268H16.9672V0H20.8673V12H16.9675V7.98171H13.4V12H9.50024L9.5 0ZM25.9953 3.97949H22.5627V0H33.3307V3.97949H29.8958V12H25.9961V3.97949H25.9953ZM35.0396 0H39.1058L41.6072 4.21648L44.1061 0H48.1741V12H44.2902V6.05214L41.6072 10.3188H41.5399L38.8552 6.05214V12H35.0396V0ZM50.1148 0H54.0158V8.03361H59.5V12H50.1146L50.1148 0Z" fill="black"/>
</g>
<g filter="url(#filter1_d_242_5)">
<path d="M65 17L59.4428 79.0929L34.4627 86L9.55148 79.1024L4 17H65Z" fill="#E44D26"/>
</g>
<g filter="url(#filter2_d_242_5)">
<path d="M34.5 80.9388L53.9291 75.3862L58.5 22.5979H34.5V80.9388Z" fill="#F16529"/>
</g>
<g filter="url(#filter3_d_242_5)">
<path d="M23.7809 37.8425H34.5V30.5085H15.5L15.6813 32.4761L17.5437 52.6866H34.5V45.3526H24.4734L23.7809 37.8425ZM25.4886 56.3537H17.8823L18.9437 67.8691L34.4651 72.0394L34.5 72.0302V64.3997L34.4668 64.4082L26.0281 62.2028L25.4886 56.3537Z" fill="#EBEBEB"/>
</g>
<g filter="url(#filter4_d_242_5)">
<path d="M34.5002 52.6884H43.84L42.9594 62.2008L34.5 64.4087V72.0394L50.0493 67.8722L50.1632 66.633L51.9459 47.3234L52.1309 45.3538H34.5002V52.6884ZM34.5002 37.8252V37.8431H52.821L52.973 36.1946L53.3188 32.4763L53.5 30.5085H34.5002V37.8252Z" fill="white"/>
</g>
<defs>
<filter id="filter0_d_242_5" x="5.5" y="0" width="58" height="20" filterUnits="userSpaceOnUse" color-interpolation-filters="sRGB">
<feFlood flood-opacity="0" result="BackgroundImageFix"/>
<feColorMatrix in="SourceAlpha" type="matrix" values="0 0 0 0 0 0 0 0 0 0 0 0 0 0 0 0 0 0 127 0" result="hardAlpha"/>
<feOffset dy="4"/>
<feGaussianBlur stdDeviation="2"/>
<feComposite in2="hardAlpha" operator="out"/>
<feColorMatrix type="matrix" values="0 0 0 0 0 0 0 0 0 0 0 0 0 0 0 0 0 0 0.25 0"/>
<feBlend mode="normal" in2="BackgroundImageFix" result="effect1_dropShadow_242_5"/>
<feBlend mode="normal" in="SourceGraphic" in2="effect1_dropShadow_242_5" result="shape"/>
</filter>
<filter id="filter1_d_242_5" x="0" y="17" width="69" height="77" filterUnits="userSpaceOnUse" color-interpolation-filters="sRGB">
<feFlood flood-opacity="0" result="BackgroundImageFix"/>
<feColorMatrix in="SourceAlpha" type="matrix" values="0 0 0 0 0 0 0 0 0 0 0 0 0 0 0 0 0 0 127 0" result="hardAlpha"/>
<feOffset dy="4"/>
<feGaussianBlur stdDeviation="2"/>
<feComposite in2="hardAlpha" operator="out"/>
<feColorMatrix type="matrix" values="0 0 0 0 0 0 0 0 0 0 0 0 0 0 0 0 0 0 0.25 0"/>
<feBlend mode="normal" in2="BackgroundImageFix" result="effect1_dropShadow_242_5"/>
<feBlend mode="normal" in="SourceGraphic" in2="effect1_dropShadow_242_5" result="shape"/>
</filter>
<filter id="filter2_d_242_5" x="30.5" y="22.5979" width="32" height="66.3408" filterUnits="userSpaceOnUse" color-interpolation-filters="sRGB">
<feFlood flood-opacity="0" result="BackgroundImageFix"/>
<feColorMatrix in="SourceAlpha" type="matrix" values="0 0 0 0 0 0 0 0 0 0 0 0 0 0 0 0 0 0 127 0" result="hardAlpha"/>
<feOffset dy="4"/>
<feGaussianBlur stdDeviation="2"/>
<feComposite in2="hardAlpha" operator="out"/>
<feColorMatrix type="matrix" values="0 0 0 0 0 0 0 0 0 0 0 0 0 0 0 0 0 0 0.25 0"/>
<feBlend mode="normal" in2="BackgroundImageFix" result="effect1_dropShadow_242_5"/>
<feBlend mode="normal" in="SourceGraphic" in2="effect1_dropShadow_242_5" result="shape"/>
</filter>
<filter id="filter3_d_242_5" x="11.5" y="30.5085" width="27" height="49.5308" filterUnits="userSpaceOnUse" color-interpolation-filters="sRGB">
<feFlood flood-opacity="0" result="BackgroundImageFix"/>
<feColorMatrix in="SourceAlpha" type="matrix" values="0 0 0 0 0 0 0 0 0 0 0 0 0 0 0 0 0 0 127 0" result="hardAlpha"/>
<feOffset dy="4"/>
<feGaussianBlur stdDeviation="2"/>
<feComposite in2="hardAlpha" operator="out"/>
<feColorMatrix type="matrix" values="0 0 0 0 0 0 0 0 0 0 0 0 0 0 0 0 0 0 0.25 0"/>
<feBlend mode="normal" in2="BackgroundImageFix" result="effect1_dropShadow_242_5"/>
<feBlend mode="normal" in="SourceGraphic" in2="effect1_dropShadow_242_5" result="shape"/>
</filter>
<filter id="filter4_d_242_5" x="30.5" y="30.5085" width="27" height="49.5308" filterUnits="userSpaceOnUse" color-interpolation-filters="sRGB">
<feFlood flood-opacity="0" result="BackgroundImageFix"/>
<feColorMatrix in="SourceAlpha" type="matrix" values="0 0 0 0 0 0 0 0 0 0 0 0 0 0 0 0 0 0 127 0" result="hardAlpha"/>
<feOffset dy="4"/>
<feGaussianBlur stdDeviation="2"/>
<feComposite in2="hardAlpha" operator="out"/>
<feColorMatrix type="matrix" values="0 0 0 0 0 0 0 0 0 0 0 0 0 0 0 0 0 0 0.25 0"/>
<feBlend mode="normal" in2="BackgroundImageFix" result="effect1_dropShadow_242_5"/>
<feBlend mode="normal" in="SourceGraphic" in2="effect1_dropShadow_242_5" result="shape"/>
</filter>
</defs>
</svg>
