<svg width="90" height="90" viewBox="0 0 90 90" fill="none" xmlns="http://www.w3.org/2000/svg">
<g filter="url(#filter0_d_75_96)">
<path d="M66.7812 0H23.2188C12.6045 0 4 8.60453 4 19.2188V62.7812C4 73.3955 12.6045 82 23.2188 82H66.7812C77.3955 82 86 73.3955 86 62.7812V19.2188C86 8.60453 77.3955 0 66.7812 0Z" fill="#F0DB4F"/>
<path d="M25.5607 68.5247L31.8356 64.727C33.0464 66.8735 34.1476 68.6896 36.7892 68.6896C39.3213 68.6896 40.9177 67.6992 40.9177 63.8465V37.6456H48.6238V63.9554C48.6238 71.9366 43.9453 75.5696 37.1195 75.5696C30.9551 75.5696 27.3769 72.3771 25.5604 68.524M52.8093 67.6989L59.0836 64.0662C60.7355 66.7636 62.8822 68.745 66.6798 68.745C69.873 68.745 71.9089 67.1486 71.9089 64.9468C71.9089 62.3048 69.8173 61.3689 66.2945 59.8282L64.3685 59.0021C58.8088 56.6356 55.1207 53.6631 55.1207 47.3882C55.1207 41.6085 59.5244 37.2048 66.405 37.2048C71.3039 37.2048 74.8267 38.9115 77.3584 43.3699L71.3586 47.2229C70.0374 44.8561 68.6068 43.9205 66.405 43.9205C64.1481 43.9205 62.7169 45.3517 62.7169 47.2229C62.7169 49.5346 64.1481 50.4706 67.4505 51.9021L69.3769 52.7275C75.9269 55.535 79.615 58.3967 79.615 64.8366C79.615 71.7726 74.1659 75.5703 66.8451 75.5703C59.6897 75.5703 55.0659 72.1577 52.8093 67.6989Z" fill="#323330"/>
</g>
<defs>
<filter id="filter0_d_75_96" x="0" y="0" width="90" height="90" filterUnits="userSpaceOnUse" color-interpolation-filters="sRGB">
<feFlood flood-opacity="0" result="BackgroundImageFix"/>
<feColorMatrix in="SourceAlpha" type="matrix" values="0 0 0 0 0 0 0 0 0 0 0 0 0 0 0 0 0 0 127 0" result="hardAlpha"/>
<feOffset dy="4"/>
<feGaussianBlur stdDeviation="2"/>
<feComposite in2="hardAlpha" operator="out"/>
<feColorMatrix type="matrix" values="0 0 0 0 0 0 0 0 0 0 0 0 0 0 0 0 0 0 0.25 0"/>
<feBlend mode="normal" in2="BackgroundImageFix" result="effect1_dropShadow_75_96"/>
<feBlend mode="normal" in="SourceGraphic" in2="effect1_dropShadow_75_96" result="shape"/>
</filter>
</defs>
</svg>
