<svg width="150" height="114" viewBox="0 0 150 114" fill="none" xmlns="http://www.w3.org/2000/svg">
<rect width="150" height="113.265" rx="12" fill="#F4F4F4"/>
<g filter="url(#filter0_d_106_581)">
<path d="M42.8219 58.3015C42.8219 60.5015 42.6202 61.2177 42.1017 61.7449C41.526 62.2007 40.7774 62.451 40 62.451L40.2023 63.708C41.4049 63.7209 42.5724 63.3496 43.4843 62.6637C43.975 62.1405 44.3396 61.5384 44.5569 60.8902C44.7727 60.2485 44.8387 59.5648 44.7497 58.8928V50.5685H42.8219V58.3015ZM57.2055 57.3101C57.2055 58.2531 57.2055 59.0948 57.2906 59.8246H55.5778L55.4628 58.328C55.1044 58.8568 54.592 59.2946 53.9779 59.5939C53.3503 59.8979 52.6613 60.0497 51.9657 60.0373C50.2963 60.0373 48.3096 59.2462 48.3096 56.0155V50.6461H50.2396V55.6751C50.2396 57.4221 50.8581 58.5913 52.5992 58.5913C52.9553 58.5957 53.3095 58.537 53.6456 58.418C53.9697 58.3034 54.2701 58.1291 54.5314 57.9037C54.7785 57.6901 54.9787 57.4266 55.1194 57.1301C55.2549 56.845 55.3234 56.5321 55.3194 56.2158V50.5826H57.2467V57.2595L57.2055 57.3101ZM60.8616 53.6377C60.8616 52.468 60.8616 51.512 60.7744 50.6461H62.5026L62.5871 52.2176C62.9733 51.6482 63.5268 51.1823 64.1915 50.8684C64.8692 50.5512 65.6116 50.4012 66.3576 50.4306C68.9212 50.4306 70.8489 52.3054 70.8489 55.095C70.8489 58.3893 68.5327 60.0243 66.0275 60.0243C65.3922 60.0505 64.7593 59.931 64.1759 59.6749C63.6052 59.4217 63.1167 59.0442 62.7605 58.5778V63.6067H60.8616V53.6377ZM62.7605 56.0881C62.7649 56.3165 62.7955 56.5449 62.8477 56.7672C63.0106 57.3253 63.3812 57.8199 63.9025 58.1738C64.4237 58.5277 65.0662 58.7167 65.7258 58.7167C67.7558 58.7167 68.9495 57.2707 68.9495 55.1721C68.9495 53.3361 67.827 51.7647 65.7975 51.7647C64.9945 51.8221 64.2431 52.1321 63.6835 52.6396C63.1256 53.1471 62.7955 53.8133 62.761 54.5166L62.7605 56.0881ZM74.2855 50.6371L76.6039 56.0554C76.8502 56.6715 77.0752 57.296 77.2786 57.9279C77.4809 57.376 77.6954 56.6704 77.9566 56.0177L80.0572 50.6371H82.0872L79.2086 57.174C77.7693 60.3169 76.8901 61.9385 75.5659 62.9186C74.8996 63.4531 74.0854 63.8245 73.2063 64L72.7312 62.5934C73.3349 62.4211 73.9048 62.1445 74.4155 61.7759C75.1168 61.2751 75.6748 60.6376 76.0416 59.9146C76.1196 59.7922 76.1734 59.6555 76.1999 59.5123C76.1828 59.3592 76.1387 59.2104 76.0699 59.0729L72.156 50.6107H74.2566L74.2855 50.6371ZM87.2059 48V50.6394H89.9689V51.8969H87.2059V56.8504C87.2059 57.9825 87.581 58.6352 88.6452 58.6352C89.0223 58.64 89.3987 58.6017 89.7672 58.5209L89.8539 59.7801C89.2982 59.9458 88.7202 60.0216 88.1412 60.0046C87.7581 60.0263 87.3745 59.9748 87.0103 59.8527C86.6581 59.7366 86.3331 59.549 86.055 59.3013C85.4693 58.6155 85.202 57.7631 85.3065 56.9123V51.8834H83.6654V50.6264H85.3343V48.3888L87.2059 48ZM93.5227 55.5254C93.4838 55.9519 93.5505 56.3806 93.72 56.7801C93.8962 57.1923 94.1637 57.5579 94.5019 57.8486C94.8604 58.1575 95.2768 58.39 95.7262 58.5322C96.1841 58.6813 96.6764 58.7387 97.1632 58.7055C98.1437 58.7271 99.1197 58.5648 100.042 58.2267L100.374 59.4836C99.2421 59.8876 98.0475 60.0798 96.8481 60.0508C96.1424 60.0924 95.4372 60.0001 94.7775 59.7824C94.1333 59.5713 93.5374 59.2313 93.0254 58.7826C92.5308 58.3431 92.1485 57.8154 91.9095 57.2353C91.6717 56.6638 91.5778 56.0415 91.6361 55.4241C91.6361 52.657 93.5227 50.4706 96.6031 50.4706C100.057 50.4706 100.921 53.11 100.921 54.7957C100.938 55.0548 100.938 55.3142 100.921 55.5738H93.4788L93.5227 55.5254ZM99.1644 54.2685C99.2198 53.9312 99.1923 53.5853 99.0843 53.2613C98.9696 52.928 98.7808 52.6258 98.5325 52.378C98.2706 52.1134 97.9572 51.9068 97.6123 51.7714C97.2545 51.6272 96.8731 51.5528 96.488 51.552C95.6978 51.6026 94.9554 51.9076 94.4102 52.4112C93.8634 52.9119 93.5527 53.5736 93.5377 54.2679L99.1644 54.2685ZM103.846 53.4948C103.846 52.4157 103.846 51.4833 103.76 50.6287H105.488V52.4263H105.575C105.755 51.8727 106.13 51.3798 106.645 51.0197C107.162 50.6596 107.794 50.4486 108.453 50.4154C108.633 50.3958 108.818 50.3958 109 50.4154V51.9869C108.78 51.9647 108.558 51.9647 108.338 51.9869C107.685 52.0089 107.062 52.2373 106.589 52.6306C106.113 53.0244 105.82 53.5561 105.761 54.1233C105.708 54.3821 105.679 54.6421 105.675 54.9031V59.7936H103.775V53.5078L103.846 53.4948Z" fill="black"/>
</g>
<g filter="url(#filter1_d_106_581)">
<path d="M100.996 24.8264C101.03 25.6164 100.829 26.3989 100.419 27.077C100.009 27.7514 99.4079 28.2906 98.6904 28.627C97.9736 28.9604 97.1729 29.0739 96.3907 28.9529C95.6073 28.8316 94.878 28.4816 94.2961 27.9474C93.7116 27.41 93.3 26.7133 93.113 25.9448C92.926 25.1763 92.9718 24.3702 93.2448 23.6274C93.5144 22.886 93.9991 22.2403 94.6378 21.7715C95.2749 21.3046 96.0381 21.0372 96.8294 21.0036C97.3545 20.9814 97.8787 21.0626 98.3719 21.2427C98.865 21.4228 99.3173 21.6981 99.7025 22.0527C100.485 22.7714 100.949 23.7676 100.994 24.8242L100.996 24.8264Z" fill="white"/>
<path d="M96.8506 21.5029C97.31 21.4835 97.7688 21.5544 98.2002 21.7119C98.6316 21.8695 99.0277 22.111 99.3643 22.4209C100.049 23.0504 100.455 23.9221 100.495 24.8457L100.497 24.8994C100.515 25.573 100.341 26.2383 99.9912 26.8174C99.6778 27.3334 99.2359 27.7597 98.709 28.0557L98.4795 28.1738C97.8525 28.4655 97.1514 28.5649 96.4668 28.459C95.7809 28.3527 95.1426 28.0461 94.6338 27.5791H94.6348C94.1227 27.1082 93.7622 26.4983 93.5986 25.8262C93.4352 25.1543 93.4752 24.4494 93.7139 23.7998L93.7148 23.7979C93.9211 23.231 94.2715 22.7279 94.7305 22.3359L94.9336 22.1748C95.4905 21.7667 96.158 21.5324 96.8506 21.5029Z" stroke="black"/>
</g>
<g filter="url(#filter2_d_106_581)">
<path d="M75.502 74.4475C64.1179 74.4475 54.1766 70.3046 49.0125 64.1707C50.9274 69.6627 54.5097 74.43 59.2659 77.8157C64.0023 81.1862 69.6823 82.9991 75.5088 83C81.3349 82.9978 87.0144 81.1851 91.7511 77.8157C96.507 74.4306 100.088 69.663 102 64.1707C96.8268 70.3046 86.8855 74.4475 75.502 74.4475ZM75.4975 34.5559C86.8815 34.5559 96.8246 38.7005 101.987 44.8316C100.072 39.3397 96.4897 34.5727 91.7335 31.1871C86.9978 27.8168 81.3189 26.003 75.4929 26C69.667 26.003 63.988 27.8168 59.2523 31.1871C54.4952 34.5715 50.913 39.339 49 44.8316C54.1726 38.7117 64.1134 34.5559 75.4975 34.5559Z" fill="#F37726"/>
</g>
<g filter="url(#filter3_d_106_581)">
<path d="M59.9947 87.2583C60.0424 88.345 59.7667 89.4216 59.202 90.3542C58.6409 91.2821 57.8139 92.0233 56.8264 92.4833C55.8389 92.9432 54.7357 93.1011 53.6573 92.9368C52.579 92.7718 51.5757 92.2886 50.778 91.5503C49.9768 90.8108 49.4121 89.8544 49.1539 88.7996C48.8989 87.7408 48.9618 86.6312 49.3349 85.6074C49.7083 84.5867 50.3778 83.6983 51.259 83.054C52.2848 82.3064 53.5412 81.9368 54.8121 82.0088C56.083 82.0808 57.2888 82.5899 58.222 83.4485C59.2959 84.4382 59.9329 85.808 59.9947 87.2606V87.2583Z" fill="white"/>
<path d="M54.7842 82.5078C55.9395 82.5734 57.0353 83.0361 57.8828 83.8154V83.8164C58.7988 84.6606 59.365 85.8077 59.4785 87.0352L59.4951 87.2822C59.538 88.2692 59.2876 89.2472 58.7744 90.0947V90.0957C58.2649 90.9383 57.5132 91.612 56.6152 92.0303C55.7175 92.4484 54.7142 92.5917 53.7334 92.4424C52.7534 92.2924 51.8413 91.8538 51.1172 91.1836V91.1826L50.8535 90.9219C50.3478 90.3814 49.9679 89.7374 49.7402 89.0361L49.6396 88.6807C49.4083 87.7183 49.4657 86.71 49.8047 85.7793C50.1016 84.9677 50.6043 84.2476 51.2627 83.6875L51.5537 83.458C52.4858 82.7788 53.6284 82.4423 54.7842 82.5078Z" stroke="black"/>
</g>
<g filter="url(#filter4_d_106_581)">
<path d="M51.1314 34.9968C50.5376 35.0266 49.9498 34.8501 49.4437 34.4899C48.9344 34.1289 48.5289 33.6016 48.2785 32.9747C48.0281 32.3477 47.9439 31.6491 48.0366 30.9669C48.1254 30.2829 48.3887 29.6449 48.7928 29.1346C49.1932 28.6266 49.7148 28.2669 50.2918 28.1011C50.8686 27.9346 51.4755 27.9745 52.0322 28.2154C52.5908 28.4533 53.075 28.8793 53.4221 29.4384C53.8319 30.0926 54.0343 30.8899 53.9952 31.6964C53.9562 32.5028 53.6781 33.269 53.2076 33.8663C52.9428 34.2039 52.6229 34.4775 52.2661 34.6715C51.9094 34.8656 51.523 34.9761 51.1292 34.9968H51.1314Z" fill="white"/>
<path d="M50.4307 28.5811C50.8945 28.4472 51.3827 28.4785 51.834 28.6738L51.8359 28.6758C52.2919 28.8699 52.6995 29.2228 52.9971 29.7021L52.998 29.7041C53.351 30.2676 53.5304 30.9627 53.4961 31.6719C53.4617 32.3812 53.2165 33.0462 52.8145 33.5566V33.5576C52.5893 33.8446 52.3208 34.0728 52.0273 34.2324C51.7342 34.3919 51.4196 34.4804 51.1025 34.4971C50.6277 34.5201 50.1511 34.3802 49.7334 34.083L49.7324 34.082L49.5771 33.9629C49.2233 33.6684 48.9337 33.266 48.7432 32.7891C48.5254 32.2439 48.4509 31.6326 48.5322 31.0342V31.0312C48.6101 30.4316 48.8403 29.8802 49.1846 29.4453L49.1855 29.4443C49.5263 29.0119 49.9614 28.7167 50.4297 28.582L50.4307 28.5811Z" stroke="black"/>
</g>
<defs>
<filter id="filter0_d_106_581" x="36" y="48" width="77" height="24" filterUnits="userSpaceOnUse" color-interpolation-filters="sRGB">
<feFlood flood-opacity="0" result="BackgroundImageFix"/>
<feColorMatrix in="SourceAlpha" type="matrix" values="0 0 0 0 0 0 0 0 0 0 0 0 0 0 0 0 0 0 127 0" result="hardAlpha"/>
<feOffset dy="4"/>
<feGaussianBlur stdDeviation="2"/>
<feComposite in2="hardAlpha" operator="out"/>
<feColorMatrix type="matrix" values="0 0 0 0 0 0 0 0 0 0 0 0 0 0 0 0 0 0 0.25 0"/>
<feBlend mode="normal" in2="BackgroundImageFix" result="effect1_dropShadow_106_581"/>
<feBlend mode="normal" in="SourceGraphic" in2="effect1_dropShadow_106_581" result="shape"/>
</filter>
<filter id="filter1_d_106_581" x="89" y="21" width="16" height="16" filterUnits="userSpaceOnUse" color-interpolation-filters="sRGB">
<feFlood flood-opacity="0" result="BackgroundImageFix"/>
<feColorMatrix in="SourceAlpha" type="matrix" values="0 0 0 0 0 0 0 0 0 0 0 0 0 0 0 0 0 0 127 0" result="hardAlpha"/>
<feOffset dy="4"/>
<feGaussianBlur stdDeviation="2"/>
<feComposite in2="hardAlpha" operator="out"/>
<feColorMatrix type="matrix" values="0 0 0 0 0 0 0 0 0 0 0 0 0 0 0 0 0 0 0.25 0"/>
<feBlend mode="normal" in2="BackgroundImageFix" result="effect1_dropShadow_106_581"/>
<feBlend mode="normal" in="SourceGraphic" in2="effect1_dropShadow_106_581" result="shape"/>
</filter>
<filter id="filter2_d_106_581" x="45" y="26" width="61" height="65" filterUnits="userSpaceOnUse" color-interpolation-filters="sRGB">
<feFlood flood-opacity="0" result="BackgroundImageFix"/>
<feColorMatrix in="SourceAlpha" type="matrix" values="0 0 0 0 0 0 0 0 0 0 0 0 0 0 0 0 0 0 127 0" result="hardAlpha"/>
<feOffset dy="4"/>
<feGaussianBlur stdDeviation="2"/>
<feComposite in2="hardAlpha" operator="out"/>
<feColorMatrix type="matrix" values="0 0 0 0 0 0 0 0 0 0 0 0 0 0 0 0 0 0 0.25 0"/>
<feBlend mode="normal" in2="BackgroundImageFix" result="effect1_dropShadow_106_581"/>
<feBlend mode="normal" in="SourceGraphic" in2="effect1_dropShadow_106_581" result="shape"/>
</filter>
<filter id="filter3_d_106_581" x="45" y="82" width="19" height="19" filterUnits="userSpaceOnUse" color-interpolation-filters="sRGB">
<feFlood flood-opacity="0" result="BackgroundImageFix"/>
<feColorMatrix in="SourceAlpha" type="matrix" values="0 0 0 0 0 0 0 0 0 0 0 0 0 0 0 0 0 0 127 0" result="hardAlpha"/>
<feOffset dy="4"/>
<feGaussianBlur stdDeviation="2"/>
<feComposite in2="hardAlpha" operator="out"/>
<feColorMatrix type="matrix" values="0 0 0 0 0 0 0 0 0 0 0 0 0 0 0 0 0 0 0.25 0"/>
<feBlend mode="normal" in2="BackgroundImageFix" result="effect1_dropShadow_106_581"/>
<feBlend mode="normal" in="SourceGraphic" in2="effect1_dropShadow_106_581" result="shape"/>
</filter>
<filter id="filter4_d_106_581" x="44" y="28" width="14" height="15" filterUnits="userSpaceOnUse" color-interpolation-filters="sRGB">
<feFlood flood-opacity="0" result="BackgroundImageFix"/>
<feColorMatrix in="SourceAlpha" type="matrix" values="0 0 0 0 0 0 0 0 0 0 0 0 0 0 0 0 0 0 127 0" result="hardAlpha"/>
<feOffset dy="4"/>
<feGaussianBlur stdDeviation="2"/>
<feComposite in2="hardAlpha" operator="out"/>
<feColorMatrix type="matrix" values="0 0 0 0 0 0 0 0 0 0 0 0 0 0 0 0 0 0 0.25 0"/>
<feBlend mode="normal" in2="BackgroundImageFix" result="effect1_dropShadow_106_581"/>
<feBlend mode="normal" in="SourceGraphic" in2="effect1_dropShadow_106_581" result="shape"/>
</filter>
</defs>
</svg>
