<svg width="150" height="114" viewBox="0 0 150 114" fill="none" xmlns="http://www.w3.org/2000/svg">
<rect width="150" height="113.265" rx="12" fill="#F4F4F4"/>
<g filter="url(#filter0_d_103_490)">
<path fill-rule="evenodd" clip-rule="evenodd" d="M89 79.7295C89.1108 79.5201 89.217 79.3352 89.3074 79.1439C89.3644 79.0215 89.4523 78.997 89.5762 79.0003C90.3188 79.0209 91.0614 79.0434 91.8047 79.0505C92.4359 79.057 93.0685 79.0454 93.7003 79.0383C94.4122 79.0299 95.124 78.9932 95.8352 79.0131C96.7823 79.0402 97.7052 79.2225 98.5619 79.6367C99.5851 80.1321 100.359 80.8864 100.887 81.8804C101.219 82.5106 101.426 83.197 101.497 83.9031C101.61 84.9389 101.536 85.9509 101.201 86.9417C100.787 88.1695 100.001 89.1093 98.908 89.8134C98.067 90.3551 97.1448 90.6753 96.1564 90.8582C95.1102 91.0521 94.0608 90.9897 93.0114 90.9929C91.8604 90.9974 90.7101 90.9729 89.5591 90.96C89.3579 90.9581 89.329 90.9207 89.3821 90.732L89.4313 90.5581C89.5434 90.2115 89.6037 90.196 89.9616 90.1381C90.2154 90.0994 90.4581 90.0087 90.6741 89.872C90.7947 89.7934 90.8445 89.5886 90.8917 89.4308C90.9323 89.2929 90.9343 89.1415 90.9356 88.9959C90.952 86.7896 90.969 84.584 90.9782 82.379C90.9807 81.8212 90.9665 81.2636 90.9356 80.7067C90.9133 80.317 90.7016 80.0503 90.2297 79.9582C89.8626 79.8867 89.4929 79.8313 89.1239 79.7675L89 79.7295ZM99.5372 85.0716C99.4874 84.6323 99.4632 84.1891 99.3832 83.7562C99.1918 82.7172 98.7291 81.8121 97.9163 81.1029C96.6021 79.9569 95.0198 79.7804 93.3615 79.9169C92.9839 79.9478 92.9026 80.0747 92.8967 80.4561C92.8876 80.9972 92.8784 81.5383 92.8777 82.0794C92.8751 83.7955 92.8751 85.5116 92.8777 87.2277C92.8777 87.7164 92.8845 88.2042 92.898 88.6912C92.9138 89.1898 93.098 89.6118 93.5948 89.805C94.3781 90.1097 95.202 90.1458 96.024 90.0215C97.3368 89.8237 98.2552 89.0719 98.8713 87.9453C99.359 87.0512 99.4966 86.0752 99.5372 85.0716ZM102.729 90.9149C102.713 90.6476 102.824 90.4266 102.962 90.2237C102.999 90.169 103.128 90.1716 103.216 90.1542L103.968 90.0079C104.233 89.9525 104.373 89.7773 104.41 89.5216C104.435 89.3528 104.458 89.1821 104.46 89.0114C104.478 87.6606 104.491 86.3098 104.499 84.9589C104.506 83.6061 104.5 82.2534 104.5 80.9006L104.495 80.6423C104.468 80.2075 104.254 79.982 103.815 79.9182L102.862 79.7759C102.745 79.7604 102.702 79.705 102.745 79.6026C102.818 79.428 102.889 79.247 102.992 79.0898C103.031 79.0318 103.161 79.0093 103.249 79.0112C103.704 79.0177 104.159 79.0512 104.614 79.0505L108.573 79.0273C109.336 79.0267 110.073 79.1574 110.757 79.5162C111.511 79.9105 111.932 80.5205 112.053 81.3515C112.179 82.2244 111.909 82.96 111.26 83.5443C110.993 83.7852 110.648 83.9424 110.339 84.1382L110.238 84.2001C110.525 84.3038 110.798 84.3933 111.064 84.5002C111.843 84.8139 112.462 85.3042 112.79 86.0868C113.049 86.7046 113.049 87.3488 112.896 87.9891C112.657 88.9914 111.985 89.6581 111.111 90.1625C110.291 90.636 109.404 90.9117 108.459 90.9581C107.587 91.0013 106.711 90.9851 105.838 90.9948L105.332 90.9974C104.489 90.9784 103.647 90.9578 102.805 90.9355L102.729 90.9149ZM106.358 86.9926H106.367C106.367 87.4164 106.361 87.8403 106.368 88.2642C106.374 88.5386 106.364 88.8207 106.424 89.0848C106.515 89.4797 106.698 89.8359 107.149 89.9493C107.752 90.1045 108.382 90.1317 108.996 90.0292C109.768 89.8971 110.383 89.5171 110.721 88.795C110.971 88.2584 111.009 87.6895 110.923 87.1085C110.809 86.3432 110.395 85.7879 109.707 85.424C109.256 85.185 108.775 85.0388 108.263 85.0194C107.689 84.9982 107.114 84.9969 106.54 84.9795C106.378 84.975 106.356 85.0555 106.357 85.1856C106.36 85.7873 106.358 86.3896 106.358 86.9926ZM107.58 84.1099C107.894 84.0944 108.25 84.0899 108.603 84.0551C109.279 83.9888 109.756 83.6544 110.004 83.0186C110.131 82.6959 110.126 82.3635 110.129 82.0279C110.139 81.1537 109.62 80.4374 108.775 80.1411C108.123 79.9124 107.45 79.9086 106.774 79.9266C106.5 79.9337 106.377 80.0516 106.373 80.3228L106.332 83.8586C106.33 83.9991 106.392 84.0596 106.531 84.0641L107.58 84.1099Z" fill="black"/>
</g>
<g filter="url(#filter1_d_103_490)">
<path fill-rule="evenodd" clip-rule="evenodd" d="M40.0418 90.349L39.9958 90.9593C39.5675 90.9593 39.1725 90.956 38.7776 90.9606C38.0337 90.9683 37.2897 90.9806 36.5452 90.9916L36.4734 90.9961C36.3669 90.9832 36.1736 90.9832 36.1685 90.9509C36.137 90.7692 36.1471 90.5785 36.1553 90.3904C36.1559 90.3691 36.2284 90.3419 36.2706 90.3316L36.8494 90.199C37.2104 90.1027 37.3376 89.943 37.3546 89.5603C37.3742 89.1291 37.3937 88.6973 37.3956 88.2661C37.4012 87.2046 37.3949 86.1444 37.3994 85.0829C37.4 84.8347 37.3162 84.6498 37.0907 84.5489C36.8227 84.4269 36.5529 84.3092 36.2813 84.196C36.1528 84.1429 35.9858 84.1139 36.001 83.9367C36.0161 83.7564 36.178 83.7092 36.3304 83.6736C36.9616 83.5256 37.5934 83.3814 38.2226 83.2237C38.4255 83.1726 38.6195 83.0866 38.862 83C38.8746 83.1345 38.8979 83.2625 38.8954 83.3905L38.8582 83.9988C38.8576 84.0673 38.8922 84.1591 38.942 84.1973C38.9722 84.2212 39.0736 84.1779 39.124 84.1378C39.662 83.7176 40.2314 83.3549 40.8808 83.1435C41.8868 82.8158 42.7504 83.1196 43.3551 84.0098C43.568 84.3233 43.5687 84.3233 43.8641 84.1042C44.3712 83.726 44.9015 83.3924 45.4949 83.1726C46.7976 82.6897 48.0492 83.3025 48.5021 84.6491C48.6671 85.1379 48.7301 85.6427 48.7288 86.1586L48.7169 89.5836C48.7163 89.8661 48.8076 90.0271 49.0696 90.115C49.3638 90.2139 49.6687 90.2818 50 90.371L49.9232 90.9599C49.5465 90.9599 49.2 90.9573 48.8536 90.9606C48.007 90.9683 47.1604 90.9728 46.3144 90.9929C46.167 90.9968 46.1286 90.9593 46.121 90.8177C46.0965 90.3645 46.0927 90.3652 46.5084 90.263L46.6483 90.2262C47.0546 90.1124 47.19 89.9844 47.1931 89.5616C47.2026 88.3476 47.2272 87.1303 47.1673 85.9188C47.1049 84.6621 46.133 83.993 44.9463 84.3149C44.5633 84.4226 44.2025 84.6009 43.8817 84.8411C43.7715 84.9219 43.7507 85.015 43.7595 85.1566C43.7935 85.6919 43.8131 86.2276 43.8181 86.7637C43.8257 87.7017 43.8143 88.6398 43.8181 89.5784C43.8194 89.9585 43.946 90.104 44.3119 90.1919L44.8556 90.3206L44.9563 90.3438C44.9639 90.5223 44.9708 90.7007 44.9626 90.8791C44.9576 90.9909 44.8732 91.0006 44.7787 90.9987C44.2502 90.9851 43.7211 90.967 43.1926 90.9683C42.5495 90.9696 41.907 90.9884 41.2645 91H41.1133C41.1133 90.8106 41.1045 90.6296 41.1196 90.4492C41.1227 90.4059 41.1971 90.3451 41.2481 90.3316L41.8818 90.1939C42.1507 90.126 42.2792 89.9844 42.2944 89.7038C42.3662 88.4044 42.4178 87.1044 42.2988 85.8057C42.2697 85.5492 42.2003 85.2992 42.0934 85.0655C41.769 84.3298 41.0389 84.0227 40.1968 84.2438C39.7968 84.3485 39.4358 84.5366 39.0944 84.7739C39.0202 84.8212 38.9592 84.8875 38.9175 84.9662C38.8757 85.045 38.8547 85.1335 38.8563 85.2232C38.8572 86.5196 38.8599 87.8155 38.8645 89.111L38.8714 89.6107C38.879 89.9592 39.0232 90.1428 39.3602 90.2178C39.5769 90.2682 39.7961 90.3025 40.0418 90.349Z" fill="black"/>
</g>
<g filter="url(#filter2_d_103_490)">
<path fill-rule="evenodd" clip-rule="evenodd" d="M77.9509 83.1146C78.0375 83.611 78.0359 84.0573 77.7261 84.3957C77.4185 84.7321 77.0294 84.6189 76.6497 84.5438C76.6849 84.7795 76.7241 84.9797 76.7431 85.1824C76.8812 86.6893 76.3304 87.8078 75.1433 88.447C74.6949 88.688 74.219 88.7775 73.7331 88.8236C73.4916 88.846 73.2802 89.0632 73.2573 89.2969C73.2338 89.5339 73.3601 89.7775 73.6129 89.8486C73.9109 89.9322 74.2218 89.9559 74.5277 89.9974C75.1841 90.0856 75.8479 90.1257 76.4965 90.264C77.4773 90.472 78.0247 91.4799 77.8519 92.6398C77.6981 93.6721 77.1904 94.4232 76.4825 94.9993C75.2898 95.9723 73.9814 96.2566 72.5879 95.7603C71.7911 95.4759 71.2292 94.859 71.0352 93.861C70.9379 93.3614 71.0413 92.9091 71.3606 92.5701C71.7403 92.1685 72.1535 91.8104 72.551 91.4312L72.6797 91.2791L72.532 91.1573C72.1266 90.9309 71.8023 90.6208 71.6765 90.0823C71.6335 89.8999 71.6782 89.7801 71.8096 89.6866C72.0333 89.5282 72.2556 89.3669 72.4767 89.2028C72.5807 89.1264 72.6836 89.0474 72.7803 88.9592C72.9123 88.8407 72.9005 88.7525 72.7428 88.684C72.376 88.5247 72.05 88.2936 71.7973 87.9381C71.3751 87.345 71.2555 86.6386 71.2901 85.8927C71.3444 84.7275 71.8817 83.9599 72.7551 83.4662C73.7935 82.8796 74.8352 82.8427 75.8937 83.3773C76.2851 83.5748 76.6978 83.6169 77.1177 83.5827C77.4314 83.5564 77.7054 83.4168 77.9509 83.1146ZM74.1245 91.4628C73.3451 91.4549 73.1007 91.5681 72.6433 92.1165C72.1311 92.7314 72.1339 93.5839 72.645 94.2014C73.033 94.6694 73.5173 94.8887 74.0557 94.9545C74.6848 95.0309 75.3044 94.9999 75.8758 94.6293C76.4853 94.2323 76.7884 93.495 76.6514 92.7524C76.5379 92.1395 76.1543 91.8591 75.6874 91.6978C75.1562 91.5148 74.6071 91.4799 74.1245 91.4628ZM72.5935 85.5985C72.6221 85.8532 72.6338 86.1113 72.6819 86.3608C72.8066 87.0073 73.0453 87.5754 73.5916 87.8631C74.233 88.2021 75.0522 88.0566 75.3329 86.9967C75.5248 86.2914 75.5024 85.5295 75.2697 84.8414C75.1715 84.5266 74.9939 84.2547 74.7608 84.062C74.2039 83.6044 73.1991 83.5439 72.7898 84.555C72.6567 84.8835 72.6047 85.2331 72.5935 85.5985Z" fill="black"/>
</g>
<g filter="url(#filter3_d_103_490)">
<path fill-rule="evenodd" clip-rule="evenodd" d="M63.1675 83.0262C63.1925 83.1352 63.2425 83.2588 63.2439 83.383C63.2459 83.6195 63.2189 83.8559 63.2047 84.0923V84.2975L63.417 84.1445C63.9986 83.6934 64.6234 83.3091 65.351 83.102C66.6642 82.7292 67.9761 83.4066 68.4041 84.6671C68.5664 85.1463 68.6307 85.6389 68.6367 86.1397C68.6503 87.2523 68.6584 88.365 68.6706 89.4776C68.6746 89.8771 68.7233 89.9485 69.1243 90.0638C69.3525 90.128 69.5852 90.1768 69.8208 90.2097C69.95 90.2289 70.0054 90.2767 69.9986 90.3958L70 90.5054C69.9953 90.9661 69.9615 90.9872 69.4874 90.9859C68.3527 90.984 67.2187 90.9904 66.084 90.9993C65.7459 91.0018 65.7452 91.0114 65.7114 90.6966L65.7047 90.5156C65.7256 90.2442 65.7324 90.2467 66.0157 90.2072C66.2064 90.1804 66.3958 90.139 66.5817 90.0931C66.7731 90.0466 66.865 89.9134 66.8907 89.735C66.9036 89.6445 66.9205 89.554 66.9198 89.4635C66.9036 88.2477 66.9246 87.0306 66.8542 85.8166C66.7974 84.8347 66.0022 84.2497 64.9561 84.3166C64.4518 84.3496 63.9671 84.5135 63.5556 84.7901C63.2764 84.9742 63.2202 85.2399 63.2216 85.5261C63.2279 86.6629 63.2378 87.7999 63.2513 88.9372C63.254 89.1863 63.2615 89.4355 63.2865 89.6828C63.3129 89.9529 63.4136 90.0619 63.6949 90.1205C63.9641 90.1766 64.2386 90.2091 64.526 90.2543L64.5504 90.4634C64.5598 90.9508 64.5057 90.9872 64.0033 90.9853C62.83 90.9808 61.6568 90.9878 60.4842 90.9999C60.2996 91.0025 60.2212 90.9477 60.2259 90.7782L60.2232 90.7055C60.1928 90.2665 60.2063 90.2499 60.6472 90.1785L60.8555 90.139C61.3329 90.0377 61.4553 89.9179 61.4621 89.461C61.4844 88.0138 61.4925 86.5673 61.508 85.1201C61.5101 84.9124 61.4269 84.7512 61.2213 84.6652C60.9328 84.5461 60.6427 84.4305 60.351 84.3185C60.1901 84.2561 60.0062 84.2166 60.0001 84.0069C59.996 83.8591 60.1637 83.7284 60.393 83.6845C60.8535 83.5965 61.318 83.5232 61.7731 83.4155C62.2262 83.3091 62.6711 83.1664 63.1675 83.0262Z" fill="black"/>
</g>
<g filter="url(#filter4_d_103_490)">
<path fill-rule="evenodd" clip-rule="evenodd" d="M88 86.7255C87.9768 88.0684 87.5773 89.1542 86.4898 89.9691C85.1122 91.003 82.9633 91.3544 81.2065 90.5813C80.4568 90.2515 79.9058 89.7456 79.5469 89.089C78.9966 88.0792 78.8589 87.0174 79.146 85.9297C79.4302 84.854 80.1763 84.0746 81.2928 83.57C82.4412 83.0515 83.6506 82.8489 84.9259 83.1211C86.5391 83.4649 87.6984 84.6134 87.9289 86.0759C87.9703 86.3324 87.9862 86.592 88 86.7255ZM86.1316 87.453L86.0693 87.4467C86.0693 87.3201 86.0772 87.1934 86.0678 87.0668C86.0149 86.2779 85.8119 85.5264 85.2884 84.866C84.7918 84.2405 84.1153 83.8714 83.2351 83.8176C82.2498 83.7568 81.4218 84.238 81.1311 85.1167C80.6946 86.4362 80.8426 87.7221 81.6096 88.9308C81.9439 89.4575 82.4391 89.8463 83.1025 90.0508C84.4024 90.4503 85.5552 89.933 85.8938 88.7706C86.0185 88.3413 86.0548 87.8924 86.1316 87.453Z" fill="black"/>
</g>
<g filter="url(#filter5_d_103_490)">
<path fill-rule="evenodd" clip-rule="evenodd" d="M59 86.8304C58.9762 87.7935 58.7451 88.6838 58.14 89.4577C57.4918 90.2867 56.6009 90.7296 55.5877 90.9163C54.3898 91.1365 53.2646 90.9365 52.3023 90.1462C51.8453 89.7703 51.5331 89.2888 51.3271 88.7408C50.9892 87.8422 50.9048 86.9215 51.1127 85.9831C51.3348 84.9789 51.9116 84.2113 52.8057 83.6962C53.8395 83.1021 54.955 82.8369 56.1465 83.104C57.6785 83.4482 58.5629 84.4296 58.8899 85.9154C58.9556 86.2153 58.9646 86.5254 59 86.8304ZM57.3225 87.4657L57.2781 87.4594V87.2784C57.253 86.3951 57.0773 85.5535 56.5411 84.8194C56.1439 84.2746 55.6122 83.9329 54.9305 83.8374C53.8195 83.6817 53.0934 84.3297 52.8527 85.2099C52.5385 86.3596 52.637 87.4955 53.123 88.5857C53.4262 89.2654 53.9051 89.795 54.6409 90.0519C55.7879 90.4525 56.8269 89.9222 57.1172 88.7648C57.224 88.3415 57.2562 87.8998 57.3225 87.4657Z" fill="black"/>
</g>
<g filter="url(#filter6_d_103_490)">
<path fill-rule="evenodd" clip-rule="evenodd" d="M86.3385 37C87.1302 39.3253 87.6993 41.699 87.8871 44.1587C88.1193 47.211 88.0135 50.2422 87.3799 53.244L87.2986 53.484C87.0999 53.4846 86.8973 53.4591 86.7031 53.4899C85.0623 53.7521 83.4234 54.0235 81.7839 54.2936C80.0889 54.5729 78.3926 54.841 76.7008 55.1386C76.1014 55.2435 75.3594 55.1183 75.1174 55.96L75.0013 56L75.0832 50.9666L75 38.8218L75.7898 38.6841C77.0808 38.4698 78.3719 38.2515 79.665 38.0423C81.2071 37.7939 82.7504 37.5513 84.2938 37.3088C84.9752 37.2026 85.6572 37.1036 86.3385 37Z" fill="#439934"/>
</g>
<g filter="url(#filter7_d_103_490)">
<path fill-rule="evenodd" clip-rule="evenodd" d="M73.5321 71C72.6222 70.2839 71.6807 69.5993 70.8089 68.8458C66.1168 64.7941 62.684 60.0243 60.9933 54.2739C60.5274 52.6919 60.2174 51.0835 60.1173 49.4486C60.0468 48.3041 59.946 47.1499 60.0348 46.0111C60.2695 42.9833 60.748 39.9846 61.7178 37.0677L61.7713 37C61.8657 37.1148 62.0011 37.2168 62.049 37.3465C62.9957 39.8988 63.9363 42.4534 64.8708 45.0105C67.8088 53.0435 70.7434 61.0785 73.6864 69.1103C73.7442 69.2671 73.8929 69.3954 74 69.5367L73.5321 71Z" fill="#45A538"/>
</g>
<g filter="url(#filter8_d_103_490)">
<path fill-rule="evenodd" clip-rule="evenodd" d="M86 37.1866C85.3668 37.2891 84.7335 37.3883 84.1015 37.494C82.6684 37.7354 81.2354 37.9768 79.8036 38.2242C78.6036 38.4317 77.4048 38.6489 76.2054 38.863L75.4721 39L75.4661 38.4793C75.4416 38.0512 75.4008 37.6232 75.3954 37.1951L75.3134 29.0034C75.2942 27.2945 75.2654 25.5855 75.2337 23.8772C75.2175 22.8155 75.1894 21.754 75.1492 20.6929C75.1252 20.1233 75.0408 19.5563 75.0072 18.9866C74.9875 18.659 75.0138 18.3289 75.0204 18C75.3942 18.7889 75.7603 19.5837 76.1443 20.3667C76.7512 21.6045 77.7187 22.5167 78.5904 23.5118C82.0328 27.4472 84.4765 32.02 86 37.1866Z" fill="#46A037"/>
</g>
<g filter="url(#filter9_d_103_490)">
<path fill-rule="evenodd" clip-rule="evenodd" d="M75.3366 56.4216L75.4467 56.3833C75.6762 55.5761 76.38 55.6962 76.9485 55.5956C78.5531 55.3102 80.1619 55.0531 81.7695 54.7853C83.3245 54.5269 84.8789 54.2667 86.4352 54.0146C86.6194 53.9851 86.8115 54.0096 87 54.009C86.7093 55.0751 86.4804 56.1645 86.1114 57.2011C85.6922 58.3767 85.1855 59.5245 84.6476 60.6498C83.8418 62.3278 82.8449 63.9016 81.6778 65.3381C80.7806 66.4457 79.7807 67.471 78.7789 68.4825C78.2244 69.0413 77.5721 69.4971 76.9638 70L76.8059 69.8894L76.2386 69.3915L75.6517 68.0689C75.251 66.5264 75.0322 64.9401 75 63.3441L75.011 63.075L75.0912 61.9096C75.1175 61.5116 75.153 61.1143 75.1695 60.7164C75.2283 59.2857 75.2809 57.8536 75.3366 56.4216Z" fill="#409433"/>
</g>
<g filter="url(#filter10_d_103_490)">
<path fill-rule="evenodd" clip-rule="evenodd" d="M74.9171 55.2451C74.8583 56.7092 74.8021 58.1739 74.7387 59.6381C74.7211 60.0456 74.6839 60.4518 74.6551 60.858L74.2737 61C73.426 58.5442 72.5775 56.114 71.7481 53.6781C70.3758 49.6476 69.0206 45.6113 67.6503 41.5795C66.5438 38.3256 65.4296 35.0743 64.3076 31.8256C64.2547 31.6739 64.1045 31.5543 64 31.42L66.4427 27C66.527 27.1433 66.6373 27.2777 66.6902 27.4319C67.8202 30.7226 68.9481 34.014 70.0663 37.3086C71.5214 41.5956 72.9668 45.8845 74.4207 50.1721C74.4788 50.343 74.5742 50.5011 74.6656 50.6933L75 50.3102L74.9171 55.2451Z" fill="#4FAA41"/>
</g>
<g filter="url(#filter11_d_103_490)">
<path fill-rule="evenodd" clip-rule="evenodd" d="M63.7274 32C63.8387 32.1352 63.9976 32.2556 64.0529 32.4083C65.24 35.6787 66.4188 38.9518 67.5893 42.2275C69.039 46.2863 70.4727 50.3496 71.9245 54.407C72.802 56.8593 73.6996 59.305 74.5965 61.7779L75 61.6349L74.9095 62.8345L74.8273 63.1108C74.687 64.4236 74.5688 65.739 74.3975 67.0492C74.3118 67.706 74.1287 68.3504 73.9898 69C73.8855 68.8583 73.739 68.7295 73.6823 68.5723C70.7961 60.5175 67.9196 52.4595 65.0389 44.4034C64.1224 41.8396 63.2002 39.2776 62.2722 36.7174C62.2253 36.5874 62.0926 36.4852 62 36.37L63.7274 32Z" fill="#4AA73C"/>
</g>
<g filter="url(#filter12_d_103_490)">
<path fill-rule="evenodd" clip-rule="evenodd" d="M75 50.6253L74.6483 51C74.5521 50.812 74.4518 50.6574 74.3907 50.4902C72.8616 46.2963 71.3415 42.1012 69.811 37.908C68.6336 34.6859 67.4501 31.4656 66.2603 28.2473C66.2047 28.0964 66.0886 27.965 66 27.8248L69.177 24C69.2773 24.122 69.4202 24.2307 69.4717 24.3684C70.3532 26.7322 71.2284 29.0979 72.0971 31.4654C72.909 33.6771 73.7086 35.8912 74.5301 38.0991C74.5851 38.2469 74.7768 38.3512 74.9045 38.477L74.9114 38.9786L75 50.6253Z" fill="#57AE47"/>
</g>
<g filter="url(#filter13_d_103_490)">
<path fill-rule="evenodd" clip-rule="evenodd" d="M75 39C74.8654 38.871 74.6654 38.7633 74.6078 38.6103C73.7479 36.3328 72.9096 34.0489 72.059 31.7676C71.1487 29.3255 70.2319 26.8853 69.3087 24.4471C69.2547 24.3051 69.1051 24.1929 69 24.0671C70.0823 23.1119 71.1307 22.1223 72.2569 21.2112C73.2579 20.4019 74.0624 19.5343 74.0998 18.2548L74.1789 18L74.4639 18.6472C74.4567 18.974 74.4243 19.3021 74.4481 19.6277C74.4891 20.1938 74.5905 20.7573 74.6186 21.3234C74.6711 22.3772 74.6963 23.4329 74.7201 24.4879C74.7582 26.1856 74.7928 27.884 74.8158 29.5823L74.9144 37.7232C74.9216 38.1492 74.9712 38.5746 75 39Z" fill="#60B24F"/>
</g>
<g filter="url(#filter14_d_103_490)">
<path fill-rule="evenodd" clip-rule="evenodd" d="M73.4371 69.1471C73.5692 68.4696 73.7433 67.7976 73.8248 67.1127C73.9878 65.747 74.1002 64.3745 74.2337 63.0054L74.2672 63L74.3 63.0061C74.3346 64.7193 74.5697 66.422 75 68.0776C74.9113 68.1977 74.7871 68.3036 74.7397 68.4386C74.375 69.4953 74.0306 70.5607 73.6638 71.6167C73.6139 71.7611 73.4732 71.8738 73.3753 72L73 70.6775L73.4371 69.1471Z" fill="#A9AA88"/>
</g>
<g filter="url(#filter15_d_103_490)">
<path fill-rule="evenodd" clip-rule="evenodd" d="M74 71.2812C74.0434 71.1751 74.1058 71.0814 74.128 70.9606C74.2906 70.0772 74.4433 69.1859 74.6051 68.302C74.6258 68.1891 74.6811 68.1005 74.7205 68L75 69.1876C74.9449 69.3389 74.8686 69.4761 74.8379 69.6448L74.3028 72.6884C74.2807 72.8109 74.2058 72.8967 74.1551 73L74 71.2812Z" fill="#B6B598"/>
</g>
<g filter="url(#filter16_d_103_490)">
<path fill-rule="evenodd" clip-rule="evenodd" d="M74 73.0806C74.0904 72.97 74.2252 72.8782 74.265 72.7471L75.2245 69.4894C75.2788 69.3087 75.4163 69.1619 75.515 69L76 69.4779C75.7659 69.7455 75.6357 70.0549 75.7141 70.4458L75.5668 71.0034C75.4999 71.0989 75.4027 71.1823 75.3697 71.2916C75.0348 72.4009 74.7154 73.5162 74.3778 74.6248C74.335 74.765 74.2164 74.8755 74.1333 75L74 73.0806Z" fill="#C2C1A7"/>
</g>
<g filter="url(#filter17_d_103_490)">
<path fill-rule="evenodd" clip-rule="evenodd" d="M74.0044 75.6652C74.0625 75.5511 74.1449 75.4497 74.1743 75.3211C74.4087 74.3044 74.6309 73.2816 74.8632 72.2643C74.886 72.164 74.9535 72.0881 75 72L74.8588 74.3471C74.8211 74.4136 74.7666 74.4717 74.7485 74.5488L74.2788 76.6033C74.2458 76.7435 74.1826 76.8687 74.1332 77C74.0893 76.9125 74.0109 76.8277 74.0073 76.7368C73.9935 76.3811 74.0033 76.0226 74.0044 75.6652Z" fill="#CECDB7"/>
</g>
<g filter="url(#filter18_d_103_490)">
<path fill-rule="evenodd" clip-rule="evenodd" d="M75.0511 71C74.8755 70.5968 75.1678 70.2772 75.6959 70L76 70.1099L75.0511 71Z" fill="#CECDB7"/>
</g>
<defs>
<filter id="filter0_d_103_490" x="85" y="79" width="32" height="20" filterUnits="userSpaceOnUse" color-interpolation-filters="sRGB">
<feFlood flood-opacity="0" result="BackgroundImageFix"/>
<feColorMatrix in="SourceAlpha" type="matrix" values="0 0 0 0 0 0 0 0 0 0 0 0 0 0 0 0 0 0 127 0" result="hardAlpha"/>
<feOffset dy="4"/>
<feGaussianBlur stdDeviation="2"/>
<feComposite in2="hardAlpha" operator="out"/>
<feColorMatrix type="matrix" values="0 0 0 0 0 0 0 0 0 0 0 0 0 0 0 0 0 0 0.25 0"/>
<feBlend mode="normal" in2="BackgroundImageFix" result="effect1_dropShadow_103_490"/>
<feBlend mode="normal" in="SourceGraphic" in2="effect1_dropShadow_103_490" result="shape"/>
</filter>
<filter id="filter1_d_103_490" x="32" y="83" width="22" height="16" filterUnits="userSpaceOnUse" color-interpolation-filters="sRGB">
<feFlood flood-opacity="0" result="BackgroundImageFix"/>
<feColorMatrix in="SourceAlpha" type="matrix" values="0 0 0 0 0 0 0 0 0 0 0 0 0 0 0 0 0 0 127 0" result="hardAlpha"/>
<feOffset dy="4"/>
<feGaussianBlur stdDeviation="2"/>
<feComposite in2="hardAlpha" operator="out"/>
<feColorMatrix type="matrix" values="0 0 0 0 0 0 0 0 0 0 0 0 0 0 0 0 0 0 0.25 0"/>
<feBlend mode="normal" in2="BackgroundImageFix" result="effect1_dropShadow_103_490"/>
<feBlend mode="normal" in="SourceGraphic" in2="effect1_dropShadow_103_490" result="shape"/>
</filter>
<filter id="filter2_d_103_490" x="67" y="83" width="15" height="21" filterUnits="userSpaceOnUse" color-interpolation-filters="sRGB">
<feFlood flood-opacity="0" result="BackgroundImageFix"/>
<feColorMatrix in="SourceAlpha" type="matrix" values="0 0 0 0 0 0 0 0 0 0 0 0 0 0 0 0 0 0 127 0" result="hardAlpha"/>
<feOffset dy="4"/>
<feGaussianBlur stdDeviation="2"/>
<feComposite in2="hardAlpha" operator="out"/>
<feColorMatrix type="matrix" values="0 0 0 0 0 0 0 0 0 0 0 0 0 0 0 0 0 0 0.25 0"/>
<feBlend mode="normal" in2="BackgroundImageFix" result="effect1_dropShadow_103_490"/>
<feBlend mode="normal" in="SourceGraphic" in2="effect1_dropShadow_103_490" result="shape"/>
</filter>
<filter id="filter3_d_103_490" x="56" y="83" width="18" height="16" filterUnits="userSpaceOnUse" color-interpolation-filters="sRGB">
<feFlood flood-opacity="0" result="BackgroundImageFix"/>
<feColorMatrix in="SourceAlpha" type="matrix" values="0 0 0 0 0 0 0 0 0 0 0 0 0 0 0 0 0 0 127 0" result="hardAlpha"/>
<feOffset dy="4"/>
<feGaussianBlur stdDeviation="2"/>
<feComposite in2="hardAlpha" operator="out"/>
<feColorMatrix type="matrix" values="0 0 0 0 0 0 0 0 0 0 0 0 0 0 0 0 0 0 0.25 0"/>
<feBlend mode="normal" in2="BackgroundImageFix" result="effect1_dropShadow_103_490"/>
<feBlend mode="normal" in="SourceGraphic" in2="effect1_dropShadow_103_490" result="shape"/>
</filter>
<filter id="filter4_d_103_490" x="75" y="83" width="17" height="16" filterUnits="userSpaceOnUse" color-interpolation-filters="sRGB">
<feFlood flood-opacity="0" result="BackgroundImageFix"/>
<feColorMatrix in="SourceAlpha" type="matrix" values="0 0 0 0 0 0 0 0 0 0 0 0 0 0 0 0 0 0 127 0" result="hardAlpha"/>
<feOffset dy="4"/>
<feGaussianBlur stdDeviation="2"/>
<feComposite in2="hardAlpha" operator="out"/>
<feColorMatrix type="matrix" values="0 0 0 0 0 0 0 0 0 0 0 0 0 0 0 0 0 0 0.25 0"/>
<feBlend mode="normal" in2="BackgroundImageFix" result="effect1_dropShadow_103_490"/>
<feBlend mode="normal" in="SourceGraphic" in2="effect1_dropShadow_103_490" result="shape"/>
</filter>
<filter id="filter5_d_103_490" x="47" y="83" width="16" height="16" filterUnits="userSpaceOnUse" color-interpolation-filters="sRGB">
<feFlood flood-opacity="0" result="BackgroundImageFix"/>
<feColorMatrix in="SourceAlpha" type="matrix" values="0 0 0 0 0 0 0 0 0 0 0 0 0 0 0 0 0 0 127 0" result="hardAlpha"/>
<feOffset dy="4"/>
<feGaussianBlur stdDeviation="2"/>
<feComposite in2="hardAlpha" operator="out"/>
<feColorMatrix type="matrix" values="0 0 0 0 0 0 0 0 0 0 0 0 0 0 0 0 0 0 0.25 0"/>
<feBlend mode="normal" in2="BackgroundImageFix" result="effect1_dropShadow_103_490"/>
<feBlend mode="normal" in="SourceGraphic" in2="effect1_dropShadow_103_490" result="shape"/>
</filter>
<filter id="filter6_d_103_490" x="71" y="37" width="21" height="27" filterUnits="userSpaceOnUse" color-interpolation-filters="sRGB">
<feFlood flood-opacity="0" result="BackgroundImageFix"/>
<feColorMatrix in="SourceAlpha" type="matrix" values="0 0 0 0 0 0 0 0 0 0 0 0 0 0 0 0 0 0 127 0" result="hardAlpha"/>
<feOffset dy="4"/>
<feGaussianBlur stdDeviation="2"/>
<feComposite in2="hardAlpha" operator="out"/>
<feColorMatrix type="matrix" values="0 0 0 0 0 0 0 0 0 0 0 0 0 0 0 0 0 0 0.25 0"/>
<feBlend mode="normal" in2="BackgroundImageFix" result="effect1_dropShadow_103_490"/>
<feBlend mode="normal" in="SourceGraphic" in2="effect1_dropShadow_103_490" result="shape"/>
</filter>
<filter id="filter7_d_103_490" x="56" y="37" width="22" height="42" filterUnits="userSpaceOnUse" color-interpolation-filters="sRGB">
<feFlood flood-opacity="0" result="BackgroundImageFix"/>
<feColorMatrix in="SourceAlpha" type="matrix" values="0 0 0 0 0 0 0 0 0 0 0 0 0 0 0 0 0 0 127 0" result="hardAlpha"/>
<feOffset dy="4"/>
<feGaussianBlur stdDeviation="2"/>
<feComposite in2="hardAlpha" operator="out"/>
<feColorMatrix type="matrix" values="0 0 0 0 0 0 0 0 0 0 0 0 0 0 0 0 0 0 0.25 0"/>
<feBlend mode="normal" in2="BackgroundImageFix" result="effect1_dropShadow_103_490"/>
<feBlend mode="normal" in="SourceGraphic" in2="effect1_dropShadow_103_490" result="shape"/>
</filter>
<filter id="filter8_d_103_490" x="71" y="18" width="19" height="29" filterUnits="userSpaceOnUse" color-interpolation-filters="sRGB">
<feFlood flood-opacity="0" result="BackgroundImageFix"/>
<feColorMatrix in="SourceAlpha" type="matrix" values="0 0 0 0 0 0 0 0 0 0 0 0 0 0 0 0 0 0 127 0" result="hardAlpha"/>
<feOffset dy="4"/>
<feGaussianBlur stdDeviation="2"/>
<feComposite in2="hardAlpha" operator="out"/>
<feColorMatrix type="matrix" values="0 0 0 0 0 0 0 0 0 0 0 0 0 0 0 0 0 0 0.25 0"/>
<feBlend mode="normal" in2="BackgroundImageFix" result="effect1_dropShadow_103_490"/>
<feBlend mode="normal" in="SourceGraphic" in2="effect1_dropShadow_103_490" result="shape"/>
</filter>
<filter id="filter9_d_103_490" x="71" y="54" width="20" height="24" filterUnits="userSpaceOnUse" color-interpolation-filters="sRGB">
<feFlood flood-opacity="0" result="BackgroundImageFix"/>
<feColorMatrix in="SourceAlpha" type="matrix" values="0 0 0 0 0 0 0 0 0 0 0 0 0 0 0 0 0 0 127 0" result="hardAlpha"/>
<feOffset dy="4"/>
<feGaussianBlur stdDeviation="2"/>
<feComposite in2="hardAlpha" operator="out"/>
<feColorMatrix type="matrix" values="0 0 0 0 0 0 0 0 0 0 0 0 0 0 0 0 0 0 0.25 0"/>
<feBlend mode="normal" in2="BackgroundImageFix" result="effect1_dropShadow_103_490"/>
<feBlend mode="normal" in="SourceGraphic" in2="effect1_dropShadow_103_490" result="shape"/>
</filter>
<filter id="filter10_d_103_490" x="60" y="27" width="19" height="42" filterUnits="userSpaceOnUse" color-interpolation-filters="sRGB">
<feFlood flood-opacity="0" result="BackgroundImageFix"/>
<feColorMatrix in="SourceAlpha" type="matrix" values="0 0 0 0 0 0 0 0 0 0 0 0 0 0 0 0 0 0 127 0" result="hardAlpha"/>
<feOffset dy="4"/>
<feGaussianBlur stdDeviation="2"/>
<feComposite in2="hardAlpha" operator="out"/>
<feColorMatrix type="matrix" values="0 0 0 0 0 0 0 0 0 0 0 0 0 0 0 0 0 0 0.25 0"/>
<feBlend mode="normal" in2="BackgroundImageFix" result="effect1_dropShadow_103_490"/>
<feBlend mode="normal" in="SourceGraphic" in2="effect1_dropShadow_103_490" result="shape"/>
</filter>
<filter id="filter11_d_103_490" x="58" y="32" width="21" height="45" filterUnits="userSpaceOnUse" color-interpolation-filters="sRGB">
<feFlood flood-opacity="0" result="BackgroundImageFix"/>
<feColorMatrix in="SourceAlpha" type="matrix" values="0 0 0 0 0 0 0 0 0 0 0 0 0 0 0 0 0 0 127 0" result="hardAlpha"/>
<feOffset dy="4"/>
<feGaussianBlur stdDeviation="2"/>
<feComposite in2="hardAlpha" operator="out"/>
<feColorMatrix type="matrix" values="0 0 0 0 0 0 0 0 0 0 0 0 0 0 0 0 0 0 0.25 0"/>
<feBlend mode="normal" in2="BackgroundImageFix" result="effect1_dropShadow_103_490"/>
<feBlend mode="normal" in="SourceGraphic" in2="effect1_dropShadow_103_490" result="shape"/>
</filter>
<filter id="filter12_d_103_490" x="62" y="24" width="17" height="35" filterUnits="userSpaceOnUse" color-interpolation-filters="sRGB">
<feFlood flood-opacity="0" result="BackgroundImageFix"/>
<feColorMatrix in="SourceAlpha" type="matrix" values="0 0 0 0 0 0 0 0 0 0 0 0 0 0 0 0 0 0 127 0" result="hardAlpha"/>
<feOffset dy="4"/>
<feGaussianBlur stdDeviation="2"/>
<feComposite in2="hardAlpha" operator="out"/>
<feColorMatrix type="matrix" values="0 0 0 0 0 0 0 0 0 0 0 0 0 0 0 0 0 0 0.25 0"/>
<feBlend mode="normal" in2="BackgroundImageFix" result="effect1_dropShadow_103_490"/>
<feBlend mode="normal" in="SourceGraphic" in2="effect1_dropShadow_103_490" result="shape"/>
</filter>
<filter id="filter13_d_103_490" x="65" y="18" width="14" height="29" filterUnits="userSpaceOnUse" color-interpolation-filters="sRGB">
<feFlood flood-opacity="0" result="BackgroundImageFix"/>
<feColorMatrix in="SourceAlpha" type="matrix" values="0 0 0 0 0 0 0 0 0 0 0 0 0 0 0 0 0 0 127 0" result="hardAlpha"/>
<feOffset dy="4"/>
<feGaussianBlur stdDeviation="2"/>
<feComposite in2="hardAlpha" operator="out"/>
<feColorMatrix type="matrix" values="0 0 0 0 0 0 0 0 0 0 0 0 0 0 0 0 0 0 0.25 0"/>
<feBlend mode="normal" in2="BackgroundImageFix" result="effect1_dropShadow_103_490"/>
<feBlend mode="normal" in="SourceGraphic" in2="effect1_dropShadow_103_490" result="shape"/>
</filter>
<filter id="filter14_d_103_490" x="69" y="63" width="10" height="17" filterUnits="userSpaceOnUse" color-interpolation-filters="sRGB">
<feFlood flood-opacity="0" result="BackgroundImageFix"/>
<feColorMatrix in="SourceAlpha" type="matrix" values="0 0 0 0 0 0 0 0 0 0 0 0 0 0 0 0 0 0 127 0" result="hardAlpha"/>
<feOffset dy="4"/>
<feGaussianBlur stdDeviation="2"/>
<feComposite in2="hardAlpha" operator="out"/>
<feColorMatrix type="matrix" values="0 0 0 0 0 0 0 0 0 0 0 0 0 0 0 0 0 0 0.25 0"/>
<feBlend mode="normal" in2="BackgroundImageFix" result="effect1_dropShadow_103_490"/>
<feBlend mode="normal" in="SourceGraphic" in2="effect1_dropShadow_103_490" result="shape"/>
</filter>
<filter id="filter15_d_103_490" x="70" y="68" width="9" height="13" filterUnits="userSpaceOnUse" color-interpolation-filters="sRGB">
<feFlood flood-opacity="0" result="BackgroundImageFix"/>
<feColorMatrix in="SourceAlpha" type="matrix" values="0 0 0 0 0 0 0 0 0 0 0 0 0 0 0 0 0 0 127 0" result="hardAlpha"/>
<feOffset dy="4"/>
<feGaussianBlur stdDeviation="2"/>
<feComposite in2="hardAlpha" operator="out"/>
<feColorMatrix type="matrix" values="0 0 0 0 0 0 0 0 0 0 0 0 0 0 0 0 0 0 0.25 0"/>
<feBlend mode="normal" in2="BackgroundImageFix" result="effect1_dropShadow_103_490"/>
<feBlend mode="normal" in="SourceGraphic" in2="effect1_dropShadow_103_490" result="shape"/>
</filter>
<filter id="filter16_d_103_490" x="70" y="69" width="10" height="14" filterUnits="userSpaceOnUse" color-interpolation-filters="sRGB">
<feFlood flood-opacity="0" result="BackgroundImageFix"/>
<feColorMatrix in="SourceAlpha" type="matrix" values="0 0 0 0 0 0 0 0 0 0 0 0 0 0 0 0 0 0 127 0" result="hardAlpha"/>
<feOffset dy="4"/>
<feGaussianBlur stdDeviation="2"/>
<feComposite in2="hardAlpha" operator="out"/>
<feColorMatrix type="matrix" values="0 0 0 0 0 0 0 0 0 0 0 0 0 0 0 0 0 0 0.25 0"/>
<feBlend mode="normal" in2="BackgroundImageFix" result="effect1_dropShadow_103_490"/>
<feBlend mode="normal" in="SourceGraphic" in2="effect1_dropShadow_103_490" result="shape"/>
</filter>
<filter id="filter17_d_103_490" x="70" y="72" width="9" height="13" filterUnits="userSpaceOnUse" color-interpolation-filters="sRGB">
<feFlood flood-opacity="0" result="BackgroundImageFix"/>
<feColorMatrix in="SourceAlpha" type="matrix" values="0 0 0 0 0 0 0 0 0 0 0 0 0 0 0 0 0 0 127 0" result="hardAlpha"/>
<feOffset dy="4"/>
<feGaussianBlur stdDeviation="2"/>
<feComposite in2="hardAlpha" operator="out"/>
<feColorMatrix type="matrix" values="0 0 0 0 0 0 0 0 0 0 0 0 0 0 0 0 0 0 0.25 0"/>
<feBlend mode="normal" in2="BackgroundImageFix" result="effect1_dropShadow_103_490"/>
<feBlend mode="normal" in="SourceGraphic" in2="effect1_dropShadow_103_490" result="shape"/>
</filter>
<filter id="filter18_d_103_490" x="71" y="70" width="9" height="9" filterUnits="userSpaceOnUse" color-interpolation-filters="sRGB">
<feFlood flood-opacity="0" result="BackgroundImageFix"/>
<feColorMatrix in="SourceAlpha" type="matrix" values="0 0 0 0 0 0 0 0 0 0 0 0 0 0 0 0 0 0 127 0" result="hardAlpha"/>
<feOffset dy="4"/>
<feGaussianBlur stdDeviation="2"/>
<feComposite in2="hardAlpha" operator="out"/>
<feColorMatrix type="matrix" values="0 0 0 0 0 0 0 0 0 0 0 0 0 0 0 0 0 0 0.25 0"/>
<feBlend mode="normal" in2="BackgroundImageFix" result="effect1_dropShadow_103_490"/>
<feBlend mode="normal" in="SourceGraphic" in2="effect1_dropShadow_103_490" result="shape"/>
</filter>
</defs>
</svg>
