<svg width="94" height="53" viewBox="0 0 94 53" fill="none" xmlns="http://www.w3.org/2000/svg">
<g filter="url(#filter0_d_73_5)">
<path d="M80.9489 0C78.9419 0.00158933 76.9922 0.665223 75.4054 1.88686C73.8186 3.10851 72.6845 4.81909 72.1807 6.75044H61.8001C59.6577 6.75003 57.5846 7.50513 55.9495 8.88142C54.3145 10.2577 53.2235 12.166 52.8707 14.2668L52.5016 16.4896C52.3272 17.5409 51.7823 18.4963 50.9643 19.1848C50.1464 19.8733 49.1087 20.2501 48.0369 20.2478H44.4501C43.9476 18.3163 42.8139 16.6055 41.2271 15.3841C39.6404 14.1627 37.6905 13.5 35.6837 13.5C33.6769 13.5 31.727 14.1627 30.1402 15.3841C28.5534 16.6055 27.4198 18.3163 26.9173 20.2478H21.8219C21.2708 18.1265 19.9603 16.2779 18.1362 15.0484C16.3122 13.8189 14.0997 13.293 11.9134 13.5691C9.7272 13.8453 7.71733 14.9046 6.26053 16.5486C4.80372 18.1925 4 20.3082 4 22.4991C4 24.69 4.80372 26.8057 6.26053 28.4496C7.71733 30.0936 9.7272 31.1529 11.9134 31.4291C14.0997 31.7052 16.3122 31.1793 18.1362 29.9498C19.9603 28.7203 21.2708 26.8717 21.8219 24.7504H26.9173C27.4185 26.6835 28.5519 28.3961 30.1392 29.6188C31.7264 30.8416 33.6774 31.5051 35.6855 31.5051C37.6935 31.5051 39.6445 30.8416 41.2318 29.6188C42.819 28.3961 43.9524 26.6835 44.4536 24.7504H48.0369C49.1093 24.7472 50.1478 25.1236 50.9666 25.8122C51.7853 26.5008 52.3307 27.4567 52.5052 28.5086L52.8743 30.7279C53.2263 32.8293 54.317 34.7384 55.9521 36.1154C57.5872 37.4924 59.6607 38.248 61.8037 38.2478H63.1295C63.6802 40.3693 64.9905 42.2183 66.8145 43.4481C68.6385 44.678 70.8511 45.2043 73.0375 44.9283C75.2239 44.6523 77.234 43.5931 78.691 41.9491C80.148 40.3051 80.9519 38.1893 80.9519 35.9982C80.9519 33.8071 80.148 31.6913 78.691 30.0473C77.234 28.4033 75.2239 27.3441 73.0375 27.0681C70.8511 26.7921 68.6385 27.3184 66.8145 28.5483C64.9905 29.7781 63.6802 31.6271 63.1295 33.7486H61.8037C60.7314 33.7509 59.6932 33.3736 58.8752 32.6843C58.0572 31.9951 57.5126 31.0389 57.339 29.9869L56.9699 27.7676C56.6282 25.7265 55.5877 23.8653 54.0245 22.4991C55.5858 21.1309 56.6238 19.2685 56.9627 17.227L57.3354 15.0113C57.509 13.9593 58.0536 13.0031 58.8716 12.3139C59.6897 11.6246 60.7278 11.2473 61.8001 11.2495H72.1771C72.6001 12.88 73.4745 14.3598 74.701 15.5209C75.9276 16.682 77.4571 17.4778 79.1159 17.8179C80.7746 18.1581 82.4961 18.0289 84.0847 17.4451C85.6733 16.8614 87.0654 15.8463 88.1027 14.5154C89.1401 13.1844 89.7812 11.5909 89.9532 9.91587C90.1252 8.24083 89.8212 6.55141 89.0757 5.03955C88.3302 3.52768 87.1731 2.25398 85.7359 1.36314C84.2987 0.472296 82.639 3.28118e-05 80.9453 0M80.9453 4.49911C82.1456 4.49911 83.2967 4.97312 84.1454 5.81686C84.9942 6.66061 85.471 7.80498 85.471 8.99821C85.4714 9.58934 85.3547 10.1748 85.1275 10.721C84.9003 11.2673 84.567 11.7637 84.1467 12.1819C83.7264 12.6 83.2273 12.9317 82.678 13.1581C82.1287 13.3844 81.5399 13.5009 80.9453 13.5009C80.3507 13.5009 79.7619 13.3844 79.2126 13.1581C78.6633 12.9317 78.1643 12.6 77.744 12.1819C77.3237 11.7637 76.9904 11.2673 76.7632 10.721C76.5359 10.1748 76.4192 9.58934 76.4197 8.99821C76.4197 8.40708 76.5369 7.82175 76.7645 7.27566C76.9922 6.72957 77.3259 6.23343 77.7465 5.8156C78.1671 5.39778 78.6664 5.06645 79.2159 4.84056C79.7654 4.61467 80.3543 4.49864 80.9489 4.49911M13.0537 18C13.6484 17.9995 14.2372 18.1156 14.7867 18.3414C15.3362 18.5673 15.8355 18.8987 16.2562 19.3165C16.6768 19.7343 17.0105 20.2305 17.2381 20.7765C17.4658 21.3226 17.583 21.908 17.583 22.4991C17.583 23.0902 17.4658 23.6756 17.2381 24.2217C17.0105 24.7677 16.6768 25.2639 16.2562 25.6817C15.8355 26.0995 15.3362 26.4309 14.7867 26.6568C14.2372 26.8826 13.6484 26.9987 13.0537 26.9982C11.8535 26.9982 10.7024 26.5242 9.85364 25.6804C9.00492 24.8367 8.52811 23.6923 8.52811 22.4991C8.52811 21.3059 9.00492 20.1615 9.85364 19.3177C10.7024 18.474 11.8535 18 13.0537 18ZM35.6855 18C36.2798 18 36.8683 18.1164 37.4173 18.3425C37.9664 18.5686 38.4653 18.9 38.8856 19.3177C39.3058 19.7355 39.6392 20.2315 39.8666 20.7774C40.094 21.3232 40.2111 21.9083 40.2111 22.4991C40.2111 23.6923 39.7343 24.8367 38.8856 25.6804C38.0368 26.5242 36.8857 26.9982 35.6855 26.9982C34.4858 26.9973 33.3356 26.5228 32.4877 25.6792C31.6397 24.8355 31.1634 23.6917 31.1634 22.4991C31.1634 21.3059 31.6402 20.1615 32.4889 19.3177C33.3377 18.474 34.4888 18 35.689 18M71.9012 31.5009C73.1015 31.5009 74.2526 31.9749 75.1013 32.8186C75.9501 33.6624 76.4269 34.8067 76.4269 36C76.4269 37.1932 75.9501 38.3376 75.1013 39.1813C74.2526 40.0251 73.1015 40.4991 71.9012 40.4991C71.3066 40.4996 70.7178 40.3835 70.1683 40.1576C69.6188 39.9317 69.1194 39.6004 68.6988 39.1826C68.2782 38.7648 67.9445 38.2686 67.7169 37.7225C67.4892 37.1764 67.372 36.5911 67.372 36C67.3716 35.4089 67.4883 34.8234 67.7155 34.2772C67.9427 33.7309 68.276 33.2345 68.6963 32.8163C69.1166 32.3982 69.6156 32.0664 70.1649 31.8401C70.7143 31.6138 71.303 31.4973 71.8977 31.4973" fill="#F12525"/>
</g>
<defs>
<filter id="filter0_d_73_5" x="0" y="0" width="94" height="53" filterUnits="userSpaceOnUse" color-interpolation-filters="sRGB">
<feFlood flood-opacity="0" result="BackgroundImageFix"/>
<feColorMatrix in="SourceAlpha" type="matrix" values="0 0 0 0 0 0 0 0 0 0 0 0 0 0 0 0 0 0 127 0" result="hardAlpha"/>
<feOffset dy="4"/>
<feGaussianBlur stdDeviation="2"/>
<feComposite in2="hardAlpha" operator="out"/>
<feColorMatrix type="matrix" values="0 0 0 0 0 0 0 0 0 0 0 0 0 0 0 0 0 0 0.25 0"/>
<feBlend mode="normal" in2="BackgroundImageFix" result="effect1_dropShadow_73_5"/>
<feBlend mode="normal" in="SourceGraphic" in2="effect1_dropShadow_73_5" result="shape"/>
</filter>
</defs>
</svg>
