<svg width="150" height="114" viewBox="0 0 150 114" fill="none" xmlns="http://www.w3.org/2000/svg">
<rect width="150" height="113.265" rx="12" fill="#F4F4F4"/>
<g filter="url(#filter0_d_104_497)">
<path d="M65.488 15C62.3528 15 59.346 16.2454 57.1291 18.4622C54.9121 20.6789 53.6667 23.6855 53.6667 26.8205V33.7641H71.3987C73.0107 33.7641 74.3333 36.1199 74.3333 37.7318H44.8213C41.6861 37.7318 38.6793 38.9772 36.4624 41.194C34.2455 43.4108 33 46.4174 33 49.5524V65.1795C33 68.3145 34.2455 71.3211 36.4624 73.5378C38.6793 75.7546 41.6861 77 44.8213 77H49.6987V65.9234C49.6932 64.3731 49.9939 62.8369 50.5835 61.403C51.173 59.9691 52.0399 58.6657 53.1343 57.5675C54.2287 56.4693 55.5292 55.598 56.9611 55.0034C58.393 54.4089 59.9282 54.1029 61.4787 54.1029H83.1787C89.7093 54.1029 95 48.8497 95 42.3195V26.8205C95 23.6855 93.7545 20.6789 91.5376 18.4622C89.3207 16.2454 86.3139 15 83.1787 15H65.488ZM62.512 21.6542C64.1653 21.6542 65.488 22.1502 65.488 24.5887C65.488 27.0272 64.1653 28.2712 62.512 28.2712C60.9 28.2712 59.5773 27.0313 59.5773 24.5928C59.5773 22.1543 60.9 21.6542 62.512 21.6542Z" fill="#0288D1"/>
</g>
<g filter="url(#filter1_d_104_497)">
<path d="M99.2972 36V47.0781C99.3021 48.6283 99.001 50.1642 98.4112 51.5978C97.8214 53.0314 96.9545 54.3345 95.8601 55.4324C94.7657 56.5303 93.4655 57.4014 92.0338 57.9958C90.6022 58.5901 89.0673 58.8961 87.5172 58.8961H65.8213C64.2709 58.8906 62.7346 59.1913 61.3006 59.7809C59.8666 60.3705 58.5631 61.2374 57.4649 62.3319C56.3666 63.4264 55.4952 64.727 54.9006 66.159C54.3061 67.591 54 69.1263 54 70.6768V86.1779C54 89.3133 55.2455 92.3203 57.4624 94.5374C59.6793 96.7545 62.6861 98 65.8213 98H83.512C86.6465 98 89.6527 96.755 91.8695 94.5388C94.0863 92.3227 95.3322 89.3167 95.3333 86.182V79.2375H77.5972C75.9852 79.2375 74.6667 76.8814 74.6667 75.2693H104.179C107.314 75.2693 110.321 74.0237 112.538 71.8067C114.755 69.5896 116 66.5826 116 63.4472V47.8221C116 44.6867 114.755 41.6797 112.538 39.4626C110.321 37.2455 107.314 36 104.179 36H99.2972ZM59.456 54.655L59.4395 54.6715L59.5965 54.655H59.456ZM86.488 84.7311C88.1 84.7311 89.4227 85.9712 89.4227 88.41C89.4227 88.7954 89.3468 89.1771 89.1993 89.5331C89.0518 89.8892 88.8356 90.2128 88.5631 90.4853C88.2906 90.7578 87.9671 90.974 87.611 91.1215C87.255 91.269 86.8734 91.3449 86.488 91.3449C84.8347 91.3449 83.512 90.8489 83.512 88.41C83.512 85.9712 84.8347 84.7311 86.488 84.7311Z" fill="#FDD835"/>
</g>
<defs>
<filter id="filter0_d_104_497" x="29" y="15" width="70" height="70" filterUnits="userSpaceOnUse" color-interpolation-filters="sRGB">
<feFlood flood-opacity="0" result="BackgroundImageFix"/>
<feColorMatrix in="SourceAlpha" type="matrix" values="0 0 0 0 0 0 0 0 0 0 0 0 0 0 0 0 0 0 127 0" result="hardAlpha"/>
<feOffset dy="4"/>
<feGaussianBlur stdDeviation="2"/>
<feComposite in2="hardAlpha" operator="out"/>
<feColorMatrix type="matrix" values="0 0 0 0 0 0 0 0 0 0 0 0 0 0 0 0 0 0 0.25 0"/>
<feBlend mode="normal" in2="BackgroundImageFix" result="effect1_dropShadow_104_497"/>
<feBlend mode="normal" in="SourceGraphic" in2="effect1_dropShadow_104_497" result="shape"/>
</filter>
<filter id="filter1_d_104_497" x="50" y="36" width="70" height="70" filterUnits="userSpaceOnUse" color-interpolation-filters="sRGB">
<feFlood flood-opacity="0" result="BackgroundImageFix"/>
<feColorMatrix in="SourceAlpha" type="matrix" values="0 0 0 0 0 0 0 0 0 0 0 0 0 0 0 0 0 0 127 0" result="hardAlpha"/>
<feOffset dy="4"/>
<feGaussianBlur stdDeviation="2"/>
<feComposite in2="hardAlpha" operator="out"/>
<feColorMatrix type="matrix" values="0 0 0 0 0 0 0 0 0 0 0 0 0 0 0 0 0 0 0.25 0"/>
<feBlend mode="normal" in2="BackgroundImageFix" result="effect1_dropShadow_104_497"/>
<feBlend mode="normal" in="SourceGraphic" in2="effect1_dropShadow_104_497" result="shape"/>
</filter>
</defs>
</svg>
