<svg width="70" height="64" viewBox="0 0 70 64" fill="none" xmlns="http://www.w3.org/2000/svg">
<g filter="url(#filter0_d_75_107)">
<path d="M54.968 17.8597C54.3082 17.6336 53.6429 17.4241 52.9727 17.2314C53.0853 16.7718 53.1889 16.3177 53.2809 15.8716C54.7914 8.54589 53.804 2.64418 50.4311 0.701051C47.1972 -1.16176 41.9085 0.780643 36.5672 5.42484C36.0407 5.88335 35.526 6.35509 35.0235 6.83961C34.687 6.51743 34.3447 6.20151 33.9965 5.89199C28.3986 0.926281 22.7875 -1.1666 19.4183 0.782095C16.1873 2.65071 15.2306 8.19873 16.5905 15.1414C16.7258 15.829 16.8785 16.5131 17.0486 17.1929C16.2544 17.4184 15.488 17.6584 14.7545 17.9139C8.19133 20.2 4 23.7827 4 27.4989C4 31.337 8.49959 35.1867 15.3354 37.521C15.8896 37.7094 16.4484 37.8841 17.0113 38.0448C16.8286 38.777 16.6663 39.5142 16.5246 40.2555C15.2281 47.0777 16.2406 52.4946 19.4628 54.3514C22.7909 56.2688 28.3768 54.2981 33.8156 49.548C34.2566 49.1618 34.688 48.7646 35.1092 48.357C35.6534 48.8816 36.2122 49.391 36.7849 49.8845C42.0535 54.4138 47.2568 56.2427 50.4759 54.3809C53.8008 52.4578 54.8815 46.6386 53.4785 39.5587C53.368 39.0041 53.2441 38.4522 53.1068 37.9035C53.4991 37.7874 53.8841 37.6679 54.2594 37.5435C61.366 35.1913 65.9898 31.3883 65.9898 27.4989C65.9898 23.7691 61.6631 20.1623 54.968 17.8597ZM53.4267 35.0323C53.0874 35.1443 52.7403 35.2527 52.3855 35.3577C51.6009 32.8763 50.5422 30.2379 49.2465 27.5117C50.4829 24.8505 51.5009 22.2457 52.2634 19.7806C52.8976 19.9639 53.5129 20.1572 54.1062 20.3612C59.8426 22.3343 63.3417 25.2512 63.3417 27.4989C63.3417 29.8929 59.5627 33.0009 53.4267 35.0323ZM50.8808 40.0726C51.5011 43.2031 51.5895 46.0336 51.1786 48.2464C50.8096 50.2348 50.0671 51.5603 49.1489 52.0913C47.1955 53.2211 43.0177 51.7526 38.5121 47.8789C37.9795 47.4201 37.4597 46.9465 36.9534 46.4589C38.7002 44.5503 40.4459 42.3317 42.1496 39.8674C45.1465 39.6018 47.9776 39.1673 50.5451 38.5743C50.6719 39.0843 50.7837 39.5837 50.8808 40.0726ZM25.1337 51.8961C23.2251 52.5694 21.7049 52.5887 20.7859 52.0594C18.8306 50.9327 18.0177 46.5832 19.1265 40.749C19.2583 40.0596 19.4092 39.3739 19.5791 38.6929C22.1182 39.2541 24.9288 39.6577 27.9327 39.9011C29.648 42.3123 31.444 44.5286 33.2541 46.4693C32.8694 46.8411 32.4756 47.2035 32.0731 47.556C29.6679 49.6564 27.2578 51.1466 25.1337 51.8961ZM16.1921 35.0176C13.1694 33.9853 10.6731 32.6438 8.96209 31.18C7.42445 29.8646 6.64837 28.5585 6.64837 27.4989C6.64837 25.2437 10.0135 22.3672 15.6262 20.4122C16.3074 20.1751 17.0203 19.9513 17.76 19.7414C18.5359 22.2622 19.5534 24.8979 20.7813 27.5632C19.5374 30.2679 18.5054 32.9458 17.722 35.4964C17.2082 35.3493 16.6981 35.1897 16.1921 35.0176ZM19.1894 14.6332C18.0245 8.68499 18.7981 4.19805 20.7452 3.0719C22.819 1.87244 27.4048 3.5826 32.2383 7.87044C32.5535 8.15067 32.8636 8.43659 33.1684 8.72806C31.3673 10.6603 29.5877 12.8601 27.8876 15.2571C24.9722 15.5271 22.1814 15.9606 19.6156 16.5414C19.4575 15.9091 19.3154 15.2727 19.1894 14.6332ZM45.9291 21.2302C45.323 20.1843 44.6945 19.1516 44.044 18.1328C46.0218 18.3827 47.9169 18.7144 49.6964 19.1199C49.1622 20.8307 48.4963 22.6193 47.7125 24.4531C47.1396 23.367 46.545 22.2925 45.9291 21.2302ZM35.0247 10.6192C36.2461 11.9413 37.4694 13.4173 38.6726 15.0188C36.2318 14.9036 33.7869 14.9031 31.346 15.0173C32.5504 13.4306 33.7842 11.9565 35.0247 10.6192ZM24.0503 21.2481C23.4421 22.3018 22.8586 23.3696 22.3003 24.4506C21.5293 22.6234 20.8695 20.8266 20.3307 19.0916C22.0993 18.6963 23.9854 18.373 25.9507 18.1277C25.2929 19.1528 24.6593 20.1933 24.0503 21.2481ZM26.0071 37.058C23.9767 36.8315 22.0623 36.525 20.2941 36.1404C20.8414 34.3743 21.5158 32.5393 22.3035 30.6729C22.864 31.7547 23.4499 32.8232 24.0607 33.8774C24.6889 34.9612 25.3393 36.0228 26.0071 37.058ZM35.0978 44.5648C33.8425 43.212 32.5906 41.7152 31.368 40.1055C32.555 40.1519 33.765 40.1756 34.9949 40.1756C36.2584 40.1756 37.5074 40.1473 38.7368 40.0927C37.5297 41.7314 36.311 43.2304 35.0978 44.5648ZM47.7374 30.5776C48.5661 32.4646 49.2644 34.2899 49.8189 36.0257C48.0217 36.4355 46.0811 36.7655 44.0365 37.0106C44.6917 35.9729 45.3261 34.9222 45.9395 33.8593C46.5631 32.7789 47.1626 31.6847 47.7374 30.5776ZM43.6456 32.5374C42.7066 34.167 41.7148 35.7658 40.6718 37.3311C38.7825 37.4649 36.889 37.5313 34.9949 37.5302C33.0657 37.5302 31.1893 37.4702 29.3824 37.3531C28.3121 35.7915 27.3014 34.1899 26.3524 32.5519C25.4078 30.9226 24.5257 29.258 23.7077 27.5618C24.5236 25.8651 25.4033 24.1997 26.3447 22.5692L26.3444 22.5694C27.2853 20.9384 28.288 19.3437 29.3502 17.7888C31.1937 17.6495 33.0841 17.5769 34.9947 17.5769C36.9139 17.5769 38.807 17.6502 40.65 17.7905C41.7015 19.3431 42.6977 20.9323 43.6369 22.5552C44.5813 24.1822 45.4726 25.8394 46.3092 27.5243C45.4811 29.2263 44.5927 30.8984 43.6456 32.5374ZM49.1085 2.99279C51.1842 4.18886 51.9915 9.01207 50.6873 15.3372C50.6037 15.741 50.5108 16.1515 50.4088 16.5685C47.8367 15.9753 45.044 15.5343 42.1201 15.2602C40.4168 12.8369 38.6518 10.6337 36.88 8.72636C37.3444 8.27919 37.8198 7.84359 38.3058 7.41998C42.8824 3.44107 47.1597 1.87002 49.1085 2.99279ZM34.9949 21.9685C38.052 21.9685 40.5304 24.4446 40.5304 27.4989C40.5304 30.5531 38.052 33.0292 34.9949 33.0292C31.9378 33.0292 29.4594 30.5531 29.4594 27.4989C29.4594 24.4446 31.9378 21.9685 34.9949 21.9685Z" fill="#009FBB"/>
</g>
<defs>
<filter id="filter0_d_75_107" x="0" y="0" width="69.9898" height="63.1021" filterUnits="userSpaceOnUse" color-interpolation-filters="sRGB">
<feFlood flood-opacity="0" result="BackgroundImageFix"/>
<feColorMatrix in="SourceAlpha" type="matrix" values="0 0 0 0 0 0 0 0 0 0 0 0 0 0 0 0 0 0 127 0" result="hardAlpha"/>
<feOffset dy="4"/>
<feGaussianBlur stdDeviation="2"/>
<feComposite in2="hardAlpha" operator="out"/>
<feColorMatrix type="matrix" values="0 0 0 0 0 0 0 0 0 0 0 0 0 0 0 0 0 0 0.25 0"/>
<feBlend mode="normal" in2="BackgroundImageFix" result="effect1_dropShadow_75_107"/>
<feBlend mode="normal" in="SourceGraphic" in2="effect1_dropShadow_75_107" result="shape"/>
</filter>
</defs>
</svg>
