<svg width="18" height="17" viewBox="0 0 18 17" fill="none" xmlns="http://www.w3.org/2000/svg">
<path d="M9.00101 7.30532e-07C4.02793 -0.00195015 0 3.90372 0 8.72435C0 12.5364 2.51972 15.7768 6.02882 16.9668C6.5014 17.0819 6.429 16.7561 6.429 16.5337V15.0218C3.70015 15.332 3.58954 13.5801 3.40655 13.2875C3.03653 12.6749 2.16177 12.5188 2.42319 12.2262C3.04458 11.916 3.67802 12.3042 4.41202 13.3557C4.94291 14.1185 5.97855 13.9898 6.50341 13.863C6.61803 13.4045 6.86337 12.9948 7.20121 12.6768C4.37381 12.1852 3.1954 10.5114 3.1954 8.52146C3.1954 7.55577 3.52318 6.66812 4.16669 5.95215C3.75645 4.77186 4.20489 3.7613 4.26522 3.61109C5.43358 3.50964 6.6482 4.42265 6.74271 4.49484C7.40632 4.32121 8.16445 4.22952 9.01307 4.22952C9.86571 4.22952 10.6259 4.32511 11.2955 4.50069C11.5227 4.33291 12.6489 3.54866 13.7348 3.64425C13.7931 3.79447 14.2315 4.78162 13.8454 5.94629C14.4969 6.66422 14.8287 7.55967 14.8287 8.52731C14.8287 10.5211 13.6423 12.1969 10.8068 12.6807C11.0497 12.9124 11.2425 13.1888 11.3741 13.4936C11.5056 13.7984 11.5733 14.1256 11.573 14.456V16.6508C11.5891 16.8264 11.573 17 11.8747 17C15.436 15.8353 18 12.5715 18 8.7263C18 3.90372 13.9701 7.30532e-07 9.00101 7.30532e-07Z" fill="white"/>
</svg>
