<svg width="53" height="53" viewBox="0 0 53 53" fill="none" xmlns="http://www.w3.org/2000/svg">
<path d="M26.6247 33.3155L30.0312 36.722L40.2554 26.5002L30.0336 16.2784L26.6271 19.6873L31.0286 24.0911H12.8712V28.9093H31.0286L26.6247 33.3155Z" fill="white"/>
<path fill-rule="evenodd" clip-rule="evenodd" d="M45.2379 45.2379C55.5874 34.8885 55.5874 18.1115 45.2379 7.76209C34.8885 -2.58736 18.1115 -2.58736 7.76209 7.76209C-2.58736 18.1115 -2.58736 34.8885 7.76209 45.2379C18.1115 55.5874 34.8885 55.5874 45.2379 45.2379ZM41.8315 41.8315C45.8976 37.7653 48.182 32.2504 48.182 26.5C48.182 20.7496 45.8976 15.2347 41.8315 11.1685C37.7653 7.10239 32.2504 4.81805 26.5 4.81805C20.7496 4.81805 15.2347 7.10239 11.1685 11.1685C7.10239 15.2347 4.81805 20.7496 4.81805 26.5C4.81805 32.2504 7.10239 37.7653 11.1685 41.8315C15.2347 45.8976 20.7496 48.182 26.5 48.182C32.2504 48.182 37.7653 45.8976 41.8315 41.8315Z" fill="#FDFDFD"/>
</svg>
