<svg width="60" height="46" viewBox="0 0 60 46" fill="none" xmlns="http://www.w3.org/2000/svg">
<path d="M38.4607 0.283414C39.2679 0.637467 39.8992 1.29263 40.2158 2.10484C40.5325 2.91706 40.5086 3.81984 40.1493 4.61469L22.3747 43.9899C22.2028 44.3925 21.9511 44.7573 21.6342 45.0629C21.3173 45.3685 20.9416 45.6087 20.5292 45.7695C20.1168 45.9303 19.6759 46.0084 19.2325 45.9993C18.789 45.9901 18.3518 45.8939 17.9466 45.7163C17.5414 45.5386 17.1762 45.2831 16.8726 44.9648C16.569 44.6464 16.333 44.2715 16.1784 43.8622C16.0238 43.4529 15.9538 43.0172 15.9724 42.5809C15.991 42.1446 16.098 41.7163 16.2869 41.3211L34.0615 1.94592C34.4211 1.15123 35.0865 0.529674 35.9115 0.217915C36.7365 -0.0938451 37.6534 -0.0702853 38.4607 0.283414ZM14.4339 10.6741C15.0939 11.2517 15.494 12.0636 15.5465 12.9315C15.599 13.7993 15.2995 14.6522 14.7138 15.3029L7.79062 22.9679L14.7138 30.633C15.3007 31.2839 15.601 32.1377 15.5485 33.0066C15.496 33.8755 15.095 34.6883 14.4339 35.2661C14.1065 35.5522 13.7251 35.7721 13.3114 35.9131C12.8978 36.0541 12.46 36.1135 12.023 36.0879C11.1405 36.0362 10.315 35.6414 9.72805 34.9905L0.840742 25.1467C0.299133 24.5462 0 23.771 0 22.9679C0 22.1648 0.299133 21.3896 0.840742 20.7892L9.72805 10.9453C10.019 10.622 10.372 10.3584 10.7667 10.1696C11.1614 9.98092 11.5901 9.8708 12.0282 9.8456C12.4662 9.82039 12.905 9.88061 13.3194 10.0228C13.7337 10.165 14.1155 10.3863 14.4428 10.6741M45.5661 10.6741C45.8932 10.3876 46.2743 10.1674 46.6879 10.026C47.1014 9.8846 47.5391 9.82478 47.9761 9.84997C48.4131 9.87516 48.8408 9.98486 49.2347 10.1728C49.6286 10.3608 49.9811 10.6233 50.272 10.9453L59.1593 20.7892C59.7009 21.3896 60 22.1648 60 22.9679C60 23.771 59.7009 24.5462 59.1593 25.1467L50.272 34.9905C49.685 35.6414 48.8595 36.0362 47.977 36.0879C47.0945 36.1395 46.2273 35.844 45.5661 35.2661C44.905 34.6883 44.504 33.8755 44.4515 33.0066C44.399 32.1377 44.6993 31.2839 45.2862 30.633L52.1961 22.9679L45.2817 15.3029C44.696 14.6522 44.3965 13.7993 44.449 12.9315C44.5015 12.0636 44.9061 11.2517 45.5661 10.6741Z" fill="#F52929"/>
</svg>
