<svg width="23" height="23" viewBox="0 0 23 23" fill="none" xmlns="http://www.w3.org/2000/svg">
<path d="M16.0187 12.0983C15.6043 12.4414 15.2497 12.8243 14.9548 13.2471C14.2933 12.9121 13.604 12.6648 12.8867 12.5052C12.1694 12.3456 11.4362 12.2619 10.6871 12.2539C9.8264 12.2539 9.00554 12.3616 8.22453 12.577C7.44352 12.7924 6.71033 13.0956 6.02495 13.4865C5.33957 13.8774 4.72592 14.3521 4.18399 14.9105C3.64207 15.469 3.16788 16.0872 2.76143 16.7653C2.35499 17.4435 2.05215 18.1814 1.85291 18.9792C1.65367 19.777 1.54608 20.5987 1.53015 21.4443H0C0 20.2796 0.171344 19.1587 0.514033 18.0817C0.856722 17.0047 1.35083 16.0194 1.99636 15.1259C2.64189 14.2324 3.41095 13.4506 4.30353 12.7804C5.19612 12.1103 6.20825 11.5957 7.33992 11.2367C6.90956 10.9495 6.52703 10.6185 6.19231 10.2435C5.85759 9.86854 5.57069 9.46167 5.3316 9.02289C5.09252 8.58411 4.90922 8.1214 4.7817 7.63476C4.65419 7.14811 4.59044 6.64551 4.59044 6.12695C4.59044 5.2813 4.74983 4.48751 5.06861 3.74558C5.38739 3.00364 5.82571 2.35744 6.38358 1.80697C6.94144 1.2565 7.59096 0.817725 8.33212 0.490635C9.07329 0.163545 9.86625 0 10.711 0C11.5558 0 12.3488 0.159556 13.0899 0.478668C13.8311 0.79778 14.4766 1.23656 15.0265 1.79501C15.5764 2.35345 16.0147 3.00364 16.3415 3.74558C16.6682 4.48751 16.8316 5.2813 16.8316 6.12695C16.8316 6.64551 16.7678 7.14811 16.6403 7.63476C16.5128 8.1214 16.3335 8.5881 16.1024 9.03486C15.8713 9.48162 15.5804 9.88848 15.2297 10.2555C14.8791 10.6224 14.4925 10.9535 14.0702 11.2487C14.4129 11.3604 14.7436 11.484 15.0624 11.6197C15.3812 11.7553 15.6999 11.9148 16.0187 12.0983ZM6.12058 6.12695C6.12058 6.76518 6.24012 7.35952 6.47921 7.90999C6.7183 8.46046 7.04504 8.9471 7.45946 9.36993C7.87387 9.79275 8.36001 10.1238 8.91788 10.3632C9.47575 10.6025 10.0735 10.7222 10.711 10.7222C11.3406 10.7222 11.9343 10.6025 12.4922 10.3632C13.0501 10.1238 13.5362 9.79674 13.9506 9.38189C14.365 8.96705 14.6958 8.4804 14.9428 7.92196C15.1899 7.36351 15.3094 6.76518 15.3015 6.12695C15.3015 5.49671 15.1819 4.90236 14.9428 4.34391C14.7037 3.78547 14.377 3.29882 13.9626 2.88398C13.5482 2.46913 13.058 2.13805 12.4922 1.89074C11.9264 1.64343 11.3326 1.52376 10.711 1.53174C10.0735 1.53174 9.47973 1.6514 8.92983 1.89074C8.37994 2.13007 7.8938 2.45716 7.47141 2.87201C7.04903 3.28685 6.7183 3.77749 6.47921 4.34391C6.24012 4.91034 6.12058 5.50468 6.12058 6.12695ZM19.1507 12.2419C19.6767 12.2419 20.1748 12.3417 20.645 12.5411C21.1152 12.7405 21.5217 13.0158 21.8643 13.3668C22.207 13.7178 22.482 14.1247 22.6892 14.5874C22.8964 15.0501 23 15.5487 23 16.0832C23 16.6098 22.9004 17.1044 22.7011 17.5671C22.5019 18.0298 22.227 18.4367 21.8763 18.7877C21.5256 19.1387 21.1152 19.414 20.645 19.6134C20.1748 19.8129 19.6767 19.9166 19.1507 19.9246C18.3777 19.9246 17.6724 19.7092 17.0348 19.2784L13.5442 22.7726C13.3928 22.9242 13.2134 23 13.0062 23C12.799 23 12.6197 22.9242 12.4683 22.7726C12.3169 22.6211 12.2412 22.4416 12.2412 22.2341C12.2412 22.0267 12.3169 21.8472 12.4683 21.6956L15.9589 18.2014C15.5286 17.5631 15.3134 16.8571 15.3134 16.0832C15.3134 15.5567 15.413 15.0621 15.6123 14.5994C15.8115 14.1367 16.0865 13.7298 16.4371 13.3788C16.7878 13.0277 17.1942 12.7525 17.6564 12.5531C18.1187 12.3536 18.6168 12.2499 19.1507 12.2419ZM19.1507 18.3928C19.4695 18.3928 19.7684 18.333 20.0473 18.2133C20.3262 18.0937 20.5693 17.9301 20.7765 17.7227C20.9837 17.5153 21.1511 17.268 21.2786 16.9807C21.4061 16.6935 21.4699 16.3944 21.4699 16.0832C21.4699 15.7641 21.4101 15.465 21.2905 15.1857C21.171 14.9065 21.0036 14.6632 20.7885 14.4558C20.5733 14.2484 20.3302 14.0808 20.0593 13.9532C19.7883 13.8255 19.4854 13.7657 19.1507 13.7737C18.8319 13.7737 18.5331 13.8335 18.2542 13.9532C17.9752 14.0728 17.7322 14.2404 17.5249 14.4558C17.3177 14.6712 17.1504 14.9145 17.0229 15.1857C16.8954 15.457 16.8356 15.7562 16.8436 16.0832C16.8436 16.4024 16.9033 16.7015 17.0229 16.9807C17.1424 17.26 17.3058 17.5033 17.513 17.7107C17.7202 17.9181 17.9673 18.0857 18.2542 18.2133C18.5411 18.341 18.8399 18.4008 19.1507 18.3928Z" fill="#F0C412"/>
</svg>
