<svg width="51" height="56" viewBox="0 0 51 56" fill="none" xmlns="http://www.w3.org/2000/svg">
<path d="M42.9841 15.6297C40.6545 16.2639 38.5422 17.5328 36.878 19.2976C34.9381 12.4098 30.758 1.98477 26.6819 0.28148C26.2515 0.0780024 25.7788 -0.0176352 25.304 0.00267333C24.8292 0.0229819 24.3663 0.158638 23.9544 0.398144C21.4048 1.89844 19.7444 6.71898 21.197 15.8537C15.5943 5.49168 13.6382 5.50801 12.7352 5.49168C12.3011 5.49888 11.8786 5.63473 11.5202 5.88236C11.1618 6.12999 10.8832 6.4785 10.7191 6.88464C10.1117 8.24727 8.89467 12.4985 11.86 21.6472C8.2896 16.7077 7.19262 16.0777 5.93168 16.1407C5.52912 16.1649 5.14047 16.2984 4.80676 16.5271C4.47304 16.7558 4.20663 17.0714 4.03564 17.4404C2.96637 19.4773 3.08877 24.5988 6.40742 32.2333C5.26835 31.2207 3.82732 30.6213 2.3128 30.53C1.90575 30.5589 1.51232 30.6902 1.16828 30.9119C0.824233 31.1336 0.540494 31.4386 0.342862 31.7993C-1.00584 34.3029 1.82551 41.3261 5.3243 46.0883C8.15796 49.9965 13.8322 56 22.0723 56C23.2262 55.9991 24.3774 55.8889 25.511 55.671C25.9042 55.5937 26.2509 55.3617 26.4748 55.026C26.6988 54.6904 26.7815 54.2787 26.705 53.8814C26.6284 53.4841 26.3988 53.1338 26.0666 52.9076C25.7344 52.6814 25.3269 52.5977 24.9336 52.6751C18.0862 54.0237 12.9246 50.2205 9.79997 46.8069C5.13261 41.697 3.08415 35.5605 2.96637 33.6893C3.94557 34.0929 6.76307 35.7705 12.2456 42.8684C12.4775 43.196 12.8286 43.4172 13.2219 43.4833C13.6152 43.5494 14.0183 43.4549 14.3426 43.2207C14.6669 42.9865 14.8859 42.6317 14.9513 42.2343C15.0167 41.837 14.9232 41.4297 14.6913 41.1021C6.98477 29.2817 6.22959 22.1279 6.48132 19.7153C8.74918 22.0486 14.4096 30.614 18.6751 37.0865C18.8845 37.4194 19.2157 37.655 19.5965 37.742C19.9772 37.829 20.3766 37.7603 20.7074 37.5508C21.0476 37.3543 21.2965 37.0293 21.3996 36.6473C21.5027 36.2654 21.4514 35.8577 21.257 35.5139C12.3657 19.041 12.6752 11.5558 13.1925 9.04058C14.5251 10.4032 18.0654 15.1491 25.5249 31.5007C25.6832 31.8606 25.976 32.1428 26.3393 32.2857C26.7027 32.4286 27.1072 32.4207 27.4648 32.2636C27.8299 32.1207 28.124 31.8373 28.2825 31.4755C28.441 31.1137 28.4509 30.7032 28.31 30.334C21.0769 10.4919 24.2177 3.76972 25.4186 3.00674C26.9752 3.00674 31.3469 10.5829 34.0744 20.5109C34.2391 21.1254 34.3969 21.7242 34.5478 22.3076C34.1632 22.9858 33.8645 23.7101 33.6587 24.4635C32.1806 29.9584 30.6957 42.4297 33.5547 45.8596C33.84 46.2184 34.2084 46.5006 34.6273 46.6813C35.0462 46.862 35.5028 46.9356 35.9565 46.8956C36.5306 46.8322 37.0835 46.6408 37.5756 46.3354C38.0676 46.03 38.4864 45.618 38.8018 45.1293C41.4576 41.2211 39.8987 31.412 37.7787 22.8302C39.2227 20.7684 41.3105 19.2564 43.707 18.537C44.219 18.3729 44.7656 18.3529 45.2881 18.4791C45.8105 18.6053 46.2891 18.873 46.6723 19.2533C47.887 20.6299 50.0094 25.7818 43.5776 43.9463C43.4695 44.3205 43.5072 44.7224 43.683 45.0694C43.8588 45.4165 44.1595 45.6824 44.5232 45.8125C44.8869 45.9427 45.2862 45.9272 45.639 45.7694C45.9918 45.6115 46.2715 45.3232 46.4206 44.9636C51.5475 30.4833 52.3512 21.1549 48.924 17.2304C48.1784 16.4331 47.2277 15.8614 46.1785 15.5795C45.1294 15.2976 44.0232 15.3166 42.9841 15.6344V15.6297ZM36.3145 43.4377C36.2055 43.6402 36.0262 43.7948 35.811 43.8717C34.7025 42.5394 34.7025 34.6482 35.915 28.1757C38.2128 39.3638 36.878 42.6444 36.3145 43.4377Z" fill="white"/>
</svg>
