<svg width="23" height="23" viewBox="0 0 23 23" fill="none" xmlns="http://www.w3.org/2000/svg">
<path d="M11.5 0C5.1405 0 0 5.175 0 11.5C0 14.55 1.2116 17.4751 3.36827 19.6317C4.43615 20.6996 5.7039 21.5467 7.09914 22.1246C8.49438 22.7025 9.9898 23 11.5 23C14.55 23 17.4751 21.7884 19.6317 19.6317C21.7884 17.4751 23 14.55 23 11.5C23 9.9898 22.7025 8.49438 22.1246 7.09914C21.5467 5.7039 20.6996 4.43615 19.6317 3.36827C18.5639 2.3004 17.2961 1.45331 15.9009 0.875385C14.5056 0.297456 13.0102 0 11.5 0ZM15.525 6.9C15.9825 6.9 16.4213 7.08174 16.7448 7.40524C17.0683 7.72874 17.25 8.1675 17.25 8.625C17.25 9.0825 17.0683 9.52126 16.7448 9.84476C16.4213 10.1683 15.9825 10.35 15.525 10.35C15.0675 10.35 14.6287 10.1683 14.3052 9.84476C13.9817 9.52126 13.8 9.0825 13.8 8.625C13.8 8.1675 13.9817 7.72874 14.3052 7.40524C14.6287 7.08174 15.0675 6.9 15.525 6.9ZM7.475 6.9C7.9325 6.9 8.37126 7.08174 8.69476 7.40524C9.01826 7.72874 9.2 8.1675 9.2 8.625C9.2 9.0825 9.01826 9.52126 8.69476 9.84476C8.37126 10.1683 7.9325 10.35 7.475 10.35C7.0175 10.35 6.57874 10.1683 6.25524 9.84476C5.93174 9.52126 5.75 9.0825 5.75 8.625C5.75 8.1675 5.93174 7.72874 6.25524 7.40524C6.57874 7.08174 7.0175 6.9 7.475 6.9ZM11.5 17.825C8.8205 17.825 6.5435 16.146 5.6235 13.8H17.3765C16.445 16.146 14.1795 17.825 11.5 17.825Z" fill="#39EFBE"/>
</svg>
