<svg width="23" height="21" viewBox="0 0 23 21" fill="none" xmlns="http://www.w3.org/2000/svg">
<path d="M19.55 3.5H16.1V2.33333C16.1 1.71449 15.8577 1.121 15.4263 0.683417C14.995 0.245833 14.41 0 13.8 0H9.2C8.59 0 8.00499 0.245833 7.57366 0.683417C7.14232 1.121 6.9 1.71449 6.9 2.33333V3.5H3.45C2.535 3.5 1.65748 3.86875 1.01048 4.52513C0.363481 5.1815 0 6.07174 0 7V17.5C0 18.4283 0.363481 19.3185 1.01048 19.9749C1.65748 20.6313 2.535 21 3.45 21H19.55C20.465 21 21.3425 20.6313 21.9895 19.9749C22.6365 19.3185 23 18.4283 23 17.5V7C23 6.07174 22.6365 5.1815 21.9895 4.52513C21.3425 3.86875 20.465 3.5 19.55 3.5ZM9.2 2.33333H13.8V3.5H9.2V2.33333ZM20.7 17.5C20.7 17.8094 20.5788 18.1062 20.3632 18.325C20.1475 18.5438 19.855 18.6667 19.55 18.6667H3.45C3.145 18.6667 2.85249 18.5438 2.63683 18.325C2.42116 18.1062 2.3 17.8094 2.3 17.5V10.955L7.682 12.8333C7.80412 12.85 7.92788 12.85 8.05 12.8333H14.95C15.0747 12.8308 15.1985 12.8112 15.318 12.775L20.7 10.955V17.5ZM20.7 8.49333L14.766 10.5H8.234L2.3 8.49333V7C2.3 6.69058 2.42116 6.39384 2.63683 6.17504C2.85249 5.95625 3.145 5.83333 3.45 5.83333H19.55C19.855 5.83333 20.1475 5.95625 20.3632 6.17504C20.5788 6.39384 20.7 6.69058 20.7 7V8.49333Z" fill="#05F639"/>
</svg>
