<svg width="22" height="24" viewBox="0 0 22 24" fill="none" xmlns="http://www.w3.org/2000/svg">
<path d="M20.3316 16.0248L21.7193 16.8482C21.8049 16.8989 21.8757 16.9706 21.9249 17.0565C21.9741 17.1424 22 17.2394 22 17.3381C22 17.4368 21.9741 17.5338 21.9249 17.6196C21.8757 17.7055 21.8049 17.7773 21.7193 17.828L11.5946 23.8369C11.415 23.9436 11.2095 24 11 24C10.7905 24 10.585 23.9436 10.4054 23.8369L0.280738 17.828C0.19513 17.7773 0.124268 17.7055 0.0750654 17.6196C0.0258628 17.5338 0 17.4368 0 17.3381C0 17.2394 0.0258628 17.1424 0.0750654 17.0565C0.124268 16.9706 0.19513 16.8989 0.280738 16.8482L1.66841 16.0248L11 21.5633L20.3316 16.0248ZM20.3316 10.6576L21.7193 11.481C21.8049 11.5317 21.8757 11.6035 21.9249 11.6893C21.9741 11.7752 22 11.8722 22 11.9709C22 12.0696 21.9741 12.1666 21.9249 12.2524C21.8757 12.3383 21.8049 12.4101 21.7193 12.4608L11 18.8215L0.280738 12.4608C0.19513 12.4101 0.124268 12.3383 0.0750654 12.2524C0.0258628 12.1666 0 12.0696 0 11.9709C0 11.8722 0.0258628 11.7752 0.0750654 11.6893C0.124268 11.6035 0.19513 11.5317 0.280738 11.481L1.66841 10.6576L11 16.1961L20.3316 10.6576ZM11.5934 0.16194L21.7193 6.1709C21.8049 6.22159 21.8757 6.29337 21.9249 6.37923C21.9741 6.46509 22 6.5621 22 6.6608C22 6.75949 21.9741 6.8565 21.9249 6.94236C21.8757 7.02822 21.8049 7.1 21.7193 7.1507L11 13.5114L0.280738 7.15184C0.19513 7.10114 0.124268 7.02936 0.0750654 6.9435C0.0258628 6.85764 0 6.76063 0 6.66194C0 6.56324 0.0258628 6.46624 0.0750654 6.38037C0.124268 6.29451 0.19513 6.22274 0.280738 6.17204L10.4054 0.163082C10.585 0.056374 10.7905 0 11 0C11.2095 0 11.415 0.056374 11.5946 0.163082M11 2.47211L3.94272 6.6608L11 10.8495L18.0573 6.6608L11 2.47211Z" fill="#B093FF"/>
</svg>
