<svg width="44" height="44" viewBox="0 0 44 44" fill="none" xmlns="http://www.w3.org/2000/svg">
<path d="M33.6875 0H10.3125C4.61706 0 0 4.61706 0 10.3125V33.6875C0 39.3829 4.61706 44 10.3125 44H33.6875C39.3829 44 44 39.3829 44 33.6875V10.3125C44 4.61706 39.3829 0 33.6875 0Z" fill="#242938"/>
<path d="M22.0002 5.15625C12.5089 5.15625 4.8125 12.8511 4.8125 22.3439C4.8125 29.9379 9.73723 36.3804 16.5665 38.6531C17.4254 38.8123 17.7408 38.2803 17.7408 37.8264C17.7408 37.4165 17.7248 36.0626 17.7174 34.6265C12.9358 35.6661 11.9269 32.5985 11.9269 32.5985C11.1449 30.6118 10.0184 30.0836 10.0184 30.0836C8.459 29.0168 10.136 29.0388 10.136 29.0388C11.862 29.16 12.7708 30.81 12.7708 30.81C14.3038 33.4376 16.7917 32.6779 17.7724 32.2388C17.9267 31.1278 18.3721 30.3696 18.8636 29.9405C15.0461 29.5058 11.033 28.032 11.033 21.4462C11.033 19.5697 11.7043 18.0364 12.8038 16.8327C12.6253 16.3998 12.0369 14.6517 12.9702 12.2843C12.9702 12.2843 14.4136 11.8224 17.6981 14.046C19.0692 13.6653 20.5394 13.4743 22.0002 13.4678C23.4608 13.4743 24.9324 13.6653 26.3058 14.0461C29.5864 11.8222 31.0277 12.2844 31.0277 12.2844C31.9632 14.6517 31.3748 16.4 31.1962 16.8327C32.2982 18.0364 32.9651 19.5697 32.9651 21.4462C32.9651 28.0478 28.9443 29.5013 25.117 29.9267C25.7335 30.4602 26.2828 31.5061 26.2828 33.1097C26.2828 35.4093 26.2628 37.2603 26.2628 37.8264C26.2628 38.2838 26.5722 38.8197 27.4435 38.6509C34.269 36.3756 39.1875 29.9353 39.1875 22.3439C39.1875 12.8513 31.4921 5.15625 22.0002 5.15625ZM11.2499 29.6404C11.2121 29.7258 11.0777 29.7514 10.9553 29.6928C10.8305 29.6367 10.7606 29.5202 10.801 29.4346C10.8379 29.3466 10.9727 29.3222 11.0969 29.3812C11.2219 29.4372 11.293 29.5548 11.2499 29.6404ZM12.0954 30.3947C12.0134 30.4709 11.853 30.4355 11.7444 30.3153C11.632 30.1955 11.6108 30.0353 11.694 29.9582C11.7784 29.8822 11.934 29.9178 12.0465 30.0376C12.159 30.1589 12.181 30.3179 12.0954 30.3947ZM12.6753 31.36C12.5699 31.4332 12.3977 31.3646 12.2913 31.2116C12.1859 31.0588 12.1859 30.8756 12.2935 30.8021C12.4003 30.7287 12.5699 30.7947 12.6778 30.9464C12.7829 31.1018 12.7829 31.2852 12.6753 31.36ZM13.6562 32.4778C13.562 32.5817 13.3614 32.5538 13.2144 32.412C13.0642 32.2735 13.0223 32.0769 13.1168 31.9729C13.2122 31.8687 13.414 31.8981 13.562 32.0387C13.7112 32.1769 13.7567 32.3751 13.6562 32.4778ZM14.9239 32.8551C14.8823 32.9899 14.6891 33.051 14.4944 32.9938C14.3002 32.9349 14.1728 32.7773 14.2122 32.6411C14.2526 32.5057 14.4466 32.4419 14.6427 32.5031C14.8369 32.5617 14.9643 32.7183 14.9239 32.8551ZM16.3666 33.0153C16.3714 33.1569 16.2064 33.2745 16.0021 33.2771C15.7965 33.2817 15.6303 33.1669 15.6281 33.0275C15.6281 32.8843 15.7895 32.768 15.9949 32.7645C16.1994 32.7606 16.3666 32.8744 16.3666 33.0153ZM17.7839 32.961C17.8085 33.0992 17.6665 33.2413 17.4635 33.2791C17.264 33.3156 17.0792 33.2301 17.054 33.093C17.0292 32.9512 17.1738 32.8092 17.373 32.7724C17.5763 32.7372 17.7581 32.8204 17.7839 32.961Z" fill="white"/>
</svg>
