<svg width="24" height="24" viewBox="0 0 24 24" fill="none" xmlns="http://www.w3.org/2000/svg">
<path d="M9.825 17.527C9.80767 17.5273 9.79052 17.5235 9.77495 17.5158C9.75937 17.5082 9.74582 17.4971 9.73539 17.4832C9.72496 17.4694 9.71794 17.4533 9.71492 17.4362C9.7119 17.4191 9.71296 17.4016 9.718 17.385L12.768 6.548C12.7744 6.52442 12.7886 6.50365 12.8081 6.48898C12.8277 6.47432 12.8516 6.46658 12.876 6.467H14.2C14.2172 6.46677 14.2342 6.47059 14.2497 6.47814C14.2652 6.4857 14.2787 6.49678 14.2891 6.51049C14.2995 6.52421 14.3065 6.54018 14.3097 6.55711C14.3128 6.57405 14.3119 6.59148 14.307 6.608L11.244 17.446C11.2374 17.4692 11.2234 17.4896 11.204 17.5041C11.1847 17.5186 11.1611 17.5263 11.137 17.526H9.825V17.527ZM7.679 14.795C7.66421 14.7957 7.64945 14.7931 7.63579 14.7874C7.62213 14.7817 7.6099 14.773 7.6 14.762L4.933 12.058C4.92272 12.0478 4.91456 12.0356 4.909 12.0222C4.90343 12.0089 4.90056 11.9945 4.90056 11.98C4.90056 11.9655 4.90343 11.9511 4.909 11.9378C4.91456 11.9244 4.92272 11.9122 4.933 11.902L7.6 9.211C7.61001 9.19986 7.6224 9.19111 7.63625 9.1854C7.65009 9.17969 7.66504 9.17716 7.68 9.178H9.382C9.482 9.178 9.531 9.298 9.461 9.368L6.927 11.902C6.91657 11.9122 6.90828 11.9245 6.90263 11.9379C6.89697 11.9514 6.89406 11.9659 6.89406 11.9805C6.89406 11.9951 6.89697 12.0096 6.90263 12.0231C6.90828 12.0365 6.91657 12.0488 6.927 12.059L9.462 14.605C9.532 14.675 9.482 14.795 9.383 14.795H7.679ZM14.633 14.795C14.6109 14.7952 14.5892 14.7888 14.5708 14.7766C14.5523 14.7644 14.538 14.747 14.5295 14.7266C14.521 14.7062 14.5188 14.6837 14.5232 14.6621C14.5275 14.6404 14.5383 14.6205 14.554 14.605L17.079 12.059C17.0894 12.0488 17.0977 12.0365 17.1034 12.0231C17.109 12.0096 17.1119 11.9951 17.1119 11.9805C17.1119 11.9659 17.109 11.9514 17.1034 11.9379C17.0977 11.9245 17.0894 11.9122 17.079 11.902L14.555 9.367C14.5393 9.35147 14.5285 9.3316 14.5242 9.30994C14.5198 9.28827 14.522 9.26579 14.5305 9.24538C14.539 9.22497 14.5533 9.20756 14.5718 9.19538C14.5902 9.18319 14.6119 9.1768 14.634 9.177H16.326C16.3573 9.17767 16.3833 9.189 16.404 9.211L19.084 11.901C19.0944 11.9112 19.1027 11.9235 19.1084 11.9369C19.114 11.9504 19.1169 11.9649 19.1169 11.9795C19.1169 11.9941 19.114 12.0086 19.1084 12.0221C19.1027 12.0355 19.0944 12.0478 19.084 12.058L16.404 14.762C16.3942 14.7729 16.3821 14.7815 16.3687 14.7872C16.3552 14.7929 16.3406 14.7955 16.326 14.795H14.633ZM12 24C5.383 24 0 18.617 0 12C0 5.383 5.383 0 12 0C18.617 0 24 5.383 24 12C24 18.617 18.617 24 12 24ZM12 1.333C6.118 1.333 1.333 6.118 1.333 12C1.333 17.882 6.118 22.667 12 22.667C17.882 22.667 22.667 17.882 22.667 12C22.667 6.118 17.882 1.333 12 1.333Z" fill="white"/>
</svg>
