<svg width="17" height="13" viewBox="0 0 17 13" fill="none" xmlns="http://www.w3.org/2000/svg">
<path d="M14.4014 11.7338C14.3436 11.7265 14.2878 11.7095 14.2372 11.6839C14.1866 11.6582 14.1422 11.6244 14.1065 11.5843C14.0709 11.5443 14.0447 11.4987 14.0294 11.4503C14.0142 11.4019 14.0102 11.3516 14.0177 11.3023L15.3213 2.65009L0.714963 12.0526C0.621808 12.1125 0.503893 12.1379 0.387157 12.1231C0.270424 12.1083 0.164431 12.0546 0.0924977 11.9737C0.0205644 11.8928 -0.0114172 11.7914 0.00358757 11.6919C0.0185936 11.5923 0.079359 11.5026 0.172513 11.4427L14.7789 2.04019L4.63735 0.75556C4.57951 0.748234 4.52371 0.731261 4.47312 0.705611C4.42254 0.679962 4.37816 0.646137 4.34252 0.606068C4.30688 0.565999 4.28068 0.520471 4.26542 0.472083C4.25016 0.423695 4.24613 0.373395 4.25356 0.324055C4.261 0.274714 4.27975 0.2273 4.30875 0.184519C4.33775 0.141738 4.37643 0.104428 4.42258 0.0747195C4.46873 0.0450107 4.52145 0.0234851 4.57773 0.0113714C4.634 -0.00074219 4.69273 -0.00320637 4.75057 0.0041194L15.955 1.42338C16.0128 1.43068 16.0686 1.44763 16.1192 1.47328C16.1698 1.49892 16.2142 1.53274 16.2499 1.57282C16.2855 1.61289 16.3117 1.65843 16.3269 1.70683C16.3422 1.75523 16.3462 1.80554 16.3387 1.85488L14.8984 11.4138C14.891 11.4632 14.8723 11.5106 14.8433 11.5534C14.8143 11.5962 14.7756 11.6335 14.7295 11.6632C14.6833 11.693 14.6306 11.7145 14.5743 11.7266C14.518 11.7387 14.4593 11.7411 14.4014 11.7338Z" fill="#1C1C1C"/>
</svg>
