<svg width="24" height="19" viewBox="0 0 24 19" fill="none" xmlns="http://www.w3.org/2000/svg">
<path fill-rule="evenodd" clip-rule="evenodd" d="M11.6894 0H11.6864C11.0094 0.005 9.29637 0.0240001 7.56637 0.0940001C6.70137 0.13 5.82637 0.178 5.05637 0.246C4.31737 0.312 3.61637 0.4 3.13637 0.534C2.49637 0.714 1.91637 1.064 1.45637 1.544C0.993376 2.02494 0.662663 2.61746 0.496371 3.264L0.483371 3.309L0.476371 3.355C-0.0496293 6.565 -0.270629 11.515 0.505371 14.755L0.507371 14.763L0.509371 14.772C0.677215 15.4181 1.00811 16.0104 1.47037 16.492C1.93237 16.972 2.51037 17.322 3.15037 17.502C3.58337 17.625 4.20037 17.708 4.85037 17.769C5.59244 17.8353 6.33599 17.884 7.08037 17.915L7.92337 17.949C9.27337 17.996 10.5734 18.013 11.3234 18.019L12.0664 18.023H12.0734C12.4444 18.022 14.1834 18.015 16.0334 17.95C16.9574 17.918 17.9234 17.871 18.7534 17.803C19.5634 17.737 20.3434 17.645 20.8434 17.503C21.4834 17.323 22.0634 16.973 22.5234 16.493C22.9864 16.013 23.3164 15.423 23.4844 14.773L23.4944 14.732L23.5024 14.69C24.0594 11.46 24.2454 6.52 23.4754 3.29L23.4734 3.28L23.4704 3.27C23.3025 2.62387 22.9716 2.03164 22.5094 1.55C22.0491 1.06996 21.4692 0.721314 20.8294 0.54C20.3724 0.412 19.6994 0.326 18.9994 0.262C18.204 0.194302 17.4071 0.145288 16.6094 0.115L16.3724 0.105C15.1228 0.059208 13.8717 0.0318717 12.6214 0.023L12.0204 0.0190001L11.6764 0.0209999L11.6894 0ZM2.18937 2.24C2.52651 1.88843 2.95098 1.63271 3.41937 1.499C4.90937 1.076 10.3494 1.012 11.6994 1.002L12.0334 1.001L12.6314 1.004C13.4304 1.01 14.8814 1.029 16.3514 1.086L16.5864 1.095C18.2364 1.163 19.8664 1.281 20.5764 1.484C21.0424 1.614 21.4684 1.871 21.8064 2.224C22.1444 2.577 22.3944 3.021 22.5204 3.504C23.2474 6.544 23.0794 11.334 22.5344 14.504C22.4099 14.9848 22.164 15.4255 21.8204 15.784C21.4833 16.1359 21.0589 16.392 20.5904 16.526C18.9904 16.98 12.8204 17.008 12.0804 17.01L11.3414 17.007C10.5924 17.001 9.30137 16.984 7.96137 16.937L7.53537 16.92L7.12837 16.903C5.57837 16.833 4.09837 16.717 3.42837 16.526C2.95911 16.3948 2.53409 16.1391 2.19837 15.786C1.8547 15.4275 1.60885 14.9868 1.48437 14.506C0.754371 11.486 0.954371 6.686 1.47037 3.506C1.59485 3.02524 1.8407 2.58449 2.18437 2.226L2.18937 2.24Z" fill="black"/>
<path d="M9.02251 5.07779C9.09507 5.03402 9.17733 5.01116 9.26098 5.01151C9.34464 5.01186 9.42672 5.03541 9.49895 5.07979L15.2048 8.57979C15.2766 8.6238 15.3362 8.68686 15.3777 8.76266C15.4191 8.83846 15.4409 8.92436 15.4409 9.01179C15.4409 9.09921 15.4191 9.18511 15.3777 9.26091C15.3362 9.33671 15.2766 9.39977 15.2048 9.44379L9.49895 12.9438C9.42662 12.9882 9.34442 13.0117 9.26068 13.0119C9.17693 13.0122 9.09461 12.9892 9.02204 12.9452C8.94946 12.9013 8.88921 12.838 8.84738 12.7617C8.80555 12.6854 8.78362 12.5988 8.78381 12.5108V5.51079C8.78381 5.33179 8.87511 5.16779 9.02251 5.07779Z" fill="black"/>
</svg>
